<?xml version="1.0" standalone="no"?>
<!DOCTYPE svg PUBLIC "-//W3C//DTD SVG 1.1//EN" "http://www.w3.org/Graphics/SVG/1.1/DTD/svg11.dtd" >
<svg xmlns="http://www.w3.org/2000/svg">
<metadata>
This is a custom SVG webfont generated by Font Squirrel.
Copyright   : MIT License
Designer    : Carlos Elas
Foundry     : Carlos Elias
Foundry URL : httpcarloseliascl
</metadata>
<defs>
<font id="mnmliconsRegular" horiz-adv-x="1536" >
<font-face units-per-em="2048" ascent="1638" descent="-410" />
<missing-glyph horiz-adv-x="512" />
<glyph unicode=" "  horiz-adv-x="512" />
<glyph unicode="&#x09;" horiz-adv-x="512" />
<glyph unicode="&#xa0;" horiz-adv-x="512" />
<glyph unicode="!" horiz-adv-x="1556" d="M-4 466v302q0 44 29 73t73 29h196l322 314q16 16 36 16t35 -15t15 -37v-1064q0 -22 -15 -37t-35 -15q-18 0 -34 16l-324 314h-196q-44 0 -73 29t-29 75zM828 464q0 24 18 42q18 22 29 46t11 54q0 28 -11 51t-29 41q-18 22 -18 46t18 42t43 18t45 -18q34 -34 54 -81 t20 -99q0 -58 -20 -104t-54 -80q-20 -20 -45 -20t-43 20q-18 18 -18 42zM968 324q0 26 16 46q100 90 100 236q0 66 -26 126t-74 106q-16 18 -16 44t16 46q20 16 46 16t44 -16v-4q60 -60 98 -143t38 -175q0 -96 -38 -180t-98 -144q-18 -18 -45 -18t-45 18q-16 16 -16 42z" />
<glyph unicode="&#x22;" horiz-adv-x="1526" d="M16 338q0 70 26 132t72 108t108 72t132 26h18q10 60 40 111t74 89t100 59t120 21q70 0 131 -26t107 -72t73 -107t27 -129q0 -12 -2 -21t-2 -17q12 4 24 4h22q60 0 114 -23t93 -63t62 -93t23 -113t-23 -114t-62 -93t-93 -62t-114 -23h-22h-684q-6 0 -13 -2t-13 -2 q-70 0 -132 27t-108 73t-72 107t-26 131z" />
<glyph unicode="#" horiz-adv-x="1520" d="M-2 810v2v104q0 22 16 34l106 110l16 8q8 4 18 4h260q8 0 17 -4t17 -8l74 -78h232h12h444q28 0 49 -20t21 -48v-172h144q28 0 44 -15t10 -37l-184 -636q-12 -38 -66 -52q4 4 1 2t-17 -4q14 2 10 1t-12 -1h-1144q-4 0 -8 1t8 -1q-12 2 -16 4t0 -2q-14 4 -21 9t-11 9 q-18 20 -18 48v738q-2 2 -2 4zM92 336l106 354q4 22 30 37t54 15h910v148h-428q-2 0 -4 -1t-6 -1h-254q-16 0 -32 16l-74 74h-220l-82 -80v-86v-2v-474z" />
<glyph unicode="$" horiz-adv-x="1460" d="M-2 646q0 132 50 249t137 204t205 138t252 51q132 0 249 -51t204 -138t138 -204t51 -249q0 -134 -51 -251t-138 -204t-204 -138t-249 -51q-134 0 -252 51t-205 138t-137 204t-50 251zM103 737q-1 -53 3 -109q16 -52 49 -98t61 -94q18 -24 15 -49t-5 -49v-2q0 -16 3 -30 t15 -28q24 -32 54 -59t46 -67v-2q30 -18 61 -32t65 -26q18 2 35 7t35 9v2q28 10 54 24t48 30q18 24 13 43t-23 33t-43 19t-43 -1q-44 28 -81 67t-85 61q-22 18 -52 25t-58 15t-47 24t-19 54q4 34 -17 55t-43 37q-8 26 8 44t40 23t45 -6t21 -41q16 0 28 13t24 28l25 30 q13 15 31 19q10 8 26 10t29 4t20 7t-3 23q10 8 26 14t29 14t18 19t-9 31q-4 20 -18 35t-30 19t-31 -3t-23 -31q-22 -6 -30 11t-4 39t20 38t40 10q16 0 24 5t8 14t-6 17t-16 14q0 2 -2 2q-4 2 -16 2q-22 12 -17 33t14 43t11 41t-28 29q-34 -28 -73 -64l-78 -75 q-39 -39 -72 -81t-53 -84q-18 -52 -19 -105zM254 542q-20 -4 12 -24q4 -4 11 -9t15 -1q4 12 -3 20t-17 12q-2 2 -10 2h-8zM360 702q2 0 2 -2h2q6 -2 9 1t-1 3q-6 0 -12 -2zM466 1196q58 4 117 0t113 -32q6 -22 27 -26t44 -5t40 -6t15 -31l4 -4q-2 -2 -1 -6t3 2q8 -8 18 -20 t16 -22t4 -16t-18 -4q-22 4 -31 -12t-8 -39t11 -44t26 -29q14 -8 25 -5t15 11t-1 18t-19 18q-2 20 11 17t26 -17t20 -32t-9 -28q-4 -2 -6 -4v2q0 -2 -2 -2q-18 -12 -23 -33t-6 -44l-2 -47q-1 -24 -7 -44q-12 -28 -1 -37t27 -4t30 20t8 37q-8 20 4 27t28 11t28 8t4 18 q24 -12 36 -4t14 25t-4 37t-16 32q6 18 13 19t13 -7t8 -21t-4 -23q2 -20 16 -27t26 -11q2 -2 4 -2q12 -4 16 -14t-6 -32q-16 -48 -57 -57t-81 1q-20 -8 -33 -23t-22 -33t-18 -38t-19 -36q-12 -22 -21 -46t-12 -49t4 -48t27 -41q18 -18 38 -21t40 4t39 20l37 25q30 4 47 -10 t22 -36t-1 -47t-20 -43q-2 -6 -2 -14q64 76 101 171t37 203q0 34 -6 64q-12 -6 -27 5t-23 23t-6 18t24 -12q20 0 26 10q-8 52 -30 104q-6 10 -16 16q2 6 1 12t-1 10v2q-36 72 -89 132t-120 102t-146 66t-163 24q-14 0 -25 -1t-25 -1q-4 -2 -11 -2t-13 -2h-10l-46 -8 q-24 -4 -46 -12zM484 904q0 -12 10 -22q12 6 20 22t8 32t-6 29t-20 13q-6 0 -8 -2q6 -12 4 -24t-5 -24t-3 -24zM487 746q-1 -4 15 -14q2 0 9 1t1 -7q22 14 8 21t-26 5q-6 -2 -7 -6zM548 1032q2 -6 10 -7t20 11q6 4 8 11t-8 7q-4 2 -8 2q-2 0 -3 -1t-3 -1q-10 -2 -14 -9 t-2 -13zM558 992q0 -14 14 -28q10 -12 6 -30l-8 -35q-4 -17 -1 -32t27 -21q8 20 24 39t29 38t20 41t1 46q-4 22 -21 30t-33 6t-29 -9t-21 -19t-8 -26zM824 837q0 -5 12 -15q-10 -22 6 -24t26 14q2 12 -13 21t-25 9q-6 0 -6 -5z" />
<glyph unicode="%" horiz-adv-x="1478" d="M-2 738v72q0 32 21 54t51 22h220q30 0 52 -22t22 -54v-72q0 -32 -22 -53t-52 -21h-220q-30 0 -51 21t-21 53zM108 80v548h146v-548q0 -32 -21 -53t-53 -21q-30 0 -51 21t-21 53zM108 922v146q0 30 21 52t51 22q32 0 53 -22t21 -52v-146h-146zM448 336v72q0 30 21 52 t53 22h220q30 0 51 -22t21 -52v-72q0 -32 -21 -53t-51 -21h-220q-32 0 -53 21t-21 53zM558 80v146h146v-146q0 -32 -21 -53t-51 -21t-52 21t-22 53zM558 518v550q0 30 22 52t52 22t51 -22t21 -52v-550h-146zM922 738v72q0 32 21 54t51 22h220q30 0 51 -22t21 -54v-72 q0 -32 -21 -53t-51 -21h-220q-30 0 -51 21t-21 53zM1030 80v548h148v-548q0 -32 -22 -53t-52 -21t-52 21t-22 53zM1030 922v146q0 30 22 52t52 22t52 -22t22 -52v-146h-148z" />
<glyph unicode="&#x26;" d="M6 196q-8 24 7 45t69 35q80 20 121 68t59 114t20 142t2 154q0 76 38 128t84 84q52 36 122 58q-2 44 10 80q10 30 34 56t70 26t70 -26t34 -56q10 -36 10 -80q68 -22 122 -58q46 -32 84 -84t38 -128q0 -78 2 -154t20 -142t59 -114t119 -68q54 -14 71 -34t11 -44t-30 -48 t-54 -46t-60 -38l-46 -24q-26 -12 -83 -25t-125 -25t-135 -20t-111 -8t-112 9t-136 21t-124 25t-76 23q-12 4 -38 20t-56 38t-56 47t-34 49zM212 190q0 -14 35 -32t95 -33t142 -26t176 -11q92 0 175 11t146 26t99 33t36 32q0 12 -27 23t-74 21t-112 16t-139 10 q0 -42 -29 -71t-71 -29t-71 29t-29 71q-76 -4 -140 -10t-111 -16t-74 -21t-27 -23z" />
<glyph unicode="'" horiz-adv-x="1252" d="M2 2l206 776h140q-32 42 -50 91t-18 105q0 66 25 123t67 99t100 67t124 25t123 -25t100 -67t68 -99t25 -123q0 -108 -66 -196h138l204 -776h-1186zM482 974q0 -48 34 -82t80 -34q48 0 81 34t33 82q0 46 -33 79t-81 33q-46 0 -80 -33t-34 -79z" />
<glyph unicode="(" horiz-adv-x="1198" d="M-2 613q0 29 9 55t27 44l528 432h58q58 0 92 -22t34 -78v-106q0 -20 6 -36t42 -16h306q36 0 68 -31t32 -69v-354q0 -40 -32 -70t-68 -30h-306q-36 0 -42 -14t-6 -34v-100q0 -60 -34 -95t-92 -35q-10 6 -18 12q-8 4 -18 8t-22 4l-528 428q-18 22 -27 50t-9 57z" />
<glyph unicode=")" horiz-adv-x="1198" d="M-8 418v354q0 40 32 70t68 30h306q36 0 42 14t6 34v100q0 60 34 95t92 35l16 -12q8 -4 19 -8t23 -4l528 -428q18 -22 27 -50t9 -57t-9 -55t-27 -44l-528 -432h-58q-58 0 -92 22t-34 78v106q0 20 -6 36t-42 16h-306q-36 0 -68 31t-32 69z" />
<glyph unicode="*" horiz-adv-x="1638" d="M0 100v1080q0 18 12 30t28 12h1492q16 0 28 -12t12 -30v-1080q0 -16 -12 -28t-28 -12h-1492q-16 0 -28 12t-12 28zM138 560q0 -12 6 -20l96 -96q20 -16 40 0l206 208q4 0 8 4l94 94q10 10 8 20q4 14 -8 22l-94 94q-4 2 -5 4t-3 2l-206 206q-20 16 -40 0l-96 -96 q-6 -8 -6 -20t6 -18l192 -194l-192 -190q-6 -8 -6 -20zM640 358q0 -16 12 -29t28 -13h582q16 0 28 13t12 29v90q0 16 -12 28t-28 12h-582q-16 0 -28 -12t-12 -28v-90z" />
<glyph unicode="+" horiz-adv-x="1340" d="M2 214v840q0 42 19 83t51 72t71 51t81 20h786q62 0 105 -20t69 -51t38 -72t12 -83v-840q0 -42 -12 -81t-38 -71t-69 -51t-105 -19h-786q-42 0 -81 19t-71 51t-51 71t-19 81zM224 494h280v-280h226v280h280v226h-280v334h-226v-334h-280v-226z" />
<glyph unicode="," horiz-adv-x="1328" d="M16 1008q0 38 14 74t42 64l72 72q26 28 62 42t74 14t75 -15t67 -43l108 -112l-344 -344l-114 108q-28 30 -42 66t-14 74zM274 668l348 348l358 -360l-348 -346zM370 661q0 -21 14 -33q16 -16 36 -16t36 16q14 12 14 33t-14 35q-16 16 -36 15t-36 -17q-14 -12 -14 -33z M474 557q0 -21 16 -37q12 -12 33 -12t35 12q16 16 16 37t-16 37q-14 14 -34 14t-34 -14q-16 -16 -16 -37zM474 766q0 -20 16 -32q14 -16 34 -16t34 16q16 12 16 32t-16 34q-14 16 -34 16t-34 -16q-16 -14 -16 -34zM578 454q0 -20 16 -34q14 -16 35 -16t33 16q16 14 16 34 t-16 36q-12 14 -33 14t-35 -14q-16 -16 -16 -36zM578 661q0 -21 16 -33q14 -16 35 -16t33 16q14 12 14 33t-14 35q-12 16 -33 16t-35 -16q-16 -14 -16 -35zM578 870q0 -20 16 -36q14 -14 35 -14t33 14q16 16 16 36t-16 36q-12 14 -33 14t-35 -14q-16 -16 -16 -36zM682 557 q0 -21 14 -37q16 -12 36 -12t36 14q14 16 14 36t-14 36q-16 14 -36 14t-36 -14q-14 -16 -14 -37zM682 765q0 -21 12 -33q16 -16 37 -16t37 16q14 14 14 34t-14 34q-16 16 -36 16t-36 -16q-14 -14 -14 -35zM724 218l348 348l146 -146q28 -28 42 -65t14 -75t-14 -74t-42 -62 l-72 -72q-28 -28 -64 -42t-73 -14t-74 14t-65 42zM786 661q0 -21 14 -33q16 -16 36 -16t34 16q16 12 16 33t-16 33q-14 16 -34 17t-36 -15q-14 -14 -14 -35z" />
<glyph unicode="-" horiz-adv-x="1364" d="M0 230v822q0 50 19 93t51 75t75 50t91 18h828q48 0 90 -18t73 -50t49 -75t18 -93v-822q0 -48 -18 -91t-49 -75t-73 -51t-90 -19h-828q-48 0 -91 19t-75 51t-51 75t-19 91zM236 526h532h296v230h-296h-532v-230z" />
<glyph unicode="." horiz-adv-x="1072" d="M0 110v1074q0 44 31 75t77 31h642q46 0 77 -31t31 -75v-1074q0 -44 -31 -75t-77 -31h-642q-46 0 -77 31t-31 75zM134 322q0 -26 18 -43t42 -17h470q24 0 42 17t18 43v692q0 24 -18 42t-42 18h-470q-24 0 -42 -18t-18 -42v-692zM316 1158q0 -10 9 -19t19 -9h170q12 0 20 9 t8 19q0 28 -28 28h-170q-10 0 -19 -8t-9 -20zM362 144q0 -28 20 -48t48 -20t47 20t19 48t-19 47t-47 19t-48 -19t-20 -47z" />
<glyph unicode="/" horiz-adv-x="1224" d="M-2 505q0 19 16 35l62 62q10 10 25 17t27 7l88 4q24 52 64 92l9 9q5 5 11 9l-92 92q-14 14 -14 34t14 36q14 14 34 14t36 -14l48 -50v2l66 -66q14 4 27 7l29 7l4 120q0 14 9 30t19 26l64 64q14 14 34 14t34 -14q16 -16 16 -36t-16 -34l-44 -46q-12 -12 -14 -22l-2 -76 q34 10 69 28t69 52q38 40 91 46t99 -22l-64 -64q-12 -12 -13 -28t11 -26q0 -2 2 -4q12 -10 28 -10t26 10l66 68q28 -46 22 -99t-46 -93q-34 -34 -52 -68t-30 -70l78 4q8 0 20 12l48 46q14 14 34 14t34 -14q16 -16 16 -36t-16 -34l-62 -64q-10 -10 -27 -18t-29 -8l-120 -6 q-4 -14 -7 -27l-7 -29l64 -64l48 -50q16 -14 16 -34t-16 -36q-14 -14 -34 -14t-34 14l-92 92q-4 -4 -9 -10t-9 -10q-22 -22 -45 -37t-47 -25l-2 -88q-2 -12 -9 -27t-17 -25l-62 -64q-16 -16 -36 -16t-34 16q-16 16 -16 36t16 34l42 42q10 12 12 22l2 44q-44 -4 -89 0t-87 30 q-2 0 -4 2q-4 2 -8 6l-54 54l-4 4l-54 54q-6 2 -6 8l-4 4q-24 44 -27 89t-1 87l-44 -2q-14 0 -22 -12l-42 -42q-16 -14 -35 -14t-35 14q-16 16 -16 35z" />
<glyph unicode="0" horiz-adv-x="1114" d="M-1 760q1 150 1 300q-4 32 3 64t24 58t43 45t58 23q30 8 60 3t56 -21t45 -42t23 -56q4 -48 5 -97t1 -97q124 0 246 2t244 -4q46 -8 83 -41t43 -81q8 -30 2 -61t-23 -57t-43 -45t-56 -23q-126 -10 -250 -7t-250 1q2 -46 2 -91t6 -91q8 -44 41 -79t79 -39q94 -8 187 -5 t187 -5q40 -6 69 -34t43 -65t9 -77t-33 -70q-14 -26 -37 -40t-49 -20t-54 -7t-54 -1q-96 2 -193 -1t-189 25q-70 20 -130 64t-103 102t-68 127t-25 143q-4 150 -3 300z" />
<glyph unicode="1" horiz-adv-x="1198" d="M-80 284q62 8 114 16l78 11q36 5 36 9t-24 14t-52 20q-34 12 -74 28l64 16q24 6 42 10t14 2q58 22 123 30t123 32q16 6 52 32t76 60t75 68t47 56l22 43l19 37q9 18 17 37t14 45l15 65q7 31 39 49q28 18 64 18t68 -8q24 -6 53 -31t56 -56t46 -60t23 -43q2 -4 -23 -5 t-55 -1t-58 1t-32 -1q-4 0 -8 -4q-20 -10 -28 -26t-9 -34t4 -36t11 -36q6 -16 19 -33t21 -33q12 -28 14 -59t-2 -63q-4 -28 -18 -52t-34 -45t-42 -40l-42 -35q-24 -18 -48 -26t-44 -16t-34 -23t-18 -49t-6 -48t-3 -18t-1 -6t-2 -14q0 -2 16 -4t37 -4l41 -4q20 -2 28 -6 t21 -12t24 -17t19 -18t8 -11q0 -4 -45 -5t-100 -1t-102 1t-53 5q-6 2 2 13t19 23t21 24t10 16t-1 23l-2 40q-1 21 -5 40t-10 23q-14 10 -42 16t-58 16q-44 14 -98 11t-100 -3q-70 0 -141 -12t-141 -12z" />
<glyph unicode="2" horiz-adv-x="1460" d="M0 2v1280h1282v-1280h-1282zM584 640h116v-548h232v548h152l22 196h-174v110q0 26 12 42t42 16h120v186h-174q-70 -2 -115 -22t-71 -52t-36 -76t-10 -94v-110h-116v-196z" />
<glyph unicode="3" d="M4 606q0 76 29 143t80 118t119 80t146 29q104 0 189 -51t137 -135q46 84 132 135t188 51q78 0 146 -29t119 -80t81 -118t30 -143q0 -78 -30 -147t-81 -120t-119 -81t-146 -30q-102 0 -188 52t-132 138q-52 -86 -137 -138t-189 -52q-78 0 -146 30t-119 81t-80 120t-29 147 zM752 606q0 -58 21 -109t61 -87q74 -80 190 -80q58 0 108 20t86 60q82 76 82 196q0 110 -82 192q-36 36 -86 57t-108 21q-56 0 -105 -21t-85 -57q-40 -40 -61 -89t-21 -103z" />
<glyph unicode="4" horiz-adv-x="1466" d="M0 -2v1286h1286v-1286h-1286zM118 640h526v-526h526v528h-526v526h-526v-528z" />
<glyph unicode="5" horiz-adv-x="1240" d="M-6 322q0 50 2 101t6 101q0 32 13 61t34 51t50 35t61 13q188 6 384 6q194 0 380 -6q32 0 61 -13t50 -35t34 -51t13 -61q4 -50 6 -101t2 -101q0 -54 -2 -104t-6 -102q0 -66 -47 -111t-111 -45q-94 -4 -188 -7t-192 -3q-100 0 -194 3t-190 7q-64 0 -111 45t-47 111 q-4 52 -6 102t-2 104zM66 1282h76l48 -196h6l46 196h76l-86 -282v-202h-76v190zM82 500h76v-416h74v416h76v68h-226v-68zM308 144q0 -32 12 -50q12 -14 34 -14q20 0 40 10q10 4 19 14t17 20v-40h70v358h-70v-270q-12 -16 -20 -22q-10 -6 -16 -6q-12 0 -16 4q-4 8 -4 20v274 h-66v-298zM314 886v186q0 44 28 66q24 26 72 26q42 0 66 -26q26 -24 26 -68v-186q0 -22 -5 -40t-21 -30q-26 -26 -70 -26q-42 0 -68 26q-28 22 -28 72zM382 880q0 -16 8 -24q4 -4 20 -4t20 4q10 10 10 24v194q0 14 -10 20q-8 8 -20 8q-6 0 -10 -2t-10 -6q-8 -6 -8 -20v-194z M562 84h68v30q6 -10 14 -16t16 -10q14 -8 32 -8q30 0 46 20q8 12 12 25t4 33v198q0 44 -18 68q-16 22 -46 22q-16 0 -30 -8q-18 -6 -30 -26v156h-68v-484zM562 856v298h68v-276q0 -8 4 -16q2 -6 16 -6q6 0 18 6q8 12 18 18v274h68v-356h-68v36l-18 -18q-8 -8 -18 -14 q-22 -8 -40 -8q-26 0 -34 14q-6 10 -10 20t-4 28zM630 152v224q4 4 14 12q4 0 8 1t8 1q12 0 20 -8q4 -8 4 -28v-184q0 -24 -4 -26q-8 -8 -20 -8q-4 0 -16 6q-8 0 -14 10zM804 186q0 -50 26 -82q22 -28 68 -28q52 0 76 24q24 30 24 86v28h-68v-26q0 -16 -1 -27t-5 -15 q-8 -8 -24 -8q-10 0 -22 8q-6 12 -6 42v66h126v92q0 54 -22 78q-28 28 -72 28t-72 -28q-12 -16 -20 -35t-8 -43v-160zM872 310v36q0 20 6 36q8 6 22 6q18 0 24 -6q6 -16 6 -36v-36h-58z" />
<glyph unicode="6" horiz-adv-x="1442" d="M0 766q46 38 89 78l89 80q58 52 104 78t74 30q140 12 176 -194q18 -112 30 -180t16 -96q42 -184 92 -184q36 0 114 118q74 122 82 182q10 104 -82 104q-22 0 -45 -5t-47 -15q92 290 344 284q186 -8 178 -244q-12 -178 -248 -482q-250 -320 -420 -320q-102 0 -178 196 l-48 178l-50 178q-54 196 -116 196q-16 0 -96 -56z" />
<glyph unicode="7" horiz-adv-x="1466" d="M-2 108v1066q0 46 32 78t78 32h1066q46 0 78 -32t32 -78v-1066q0 -46 -32 -78t-78 -32h-1066q-46 0 -78 32t-32 78zM330 734h110v-354q0 -68 16 -106t54 -68q18 -16 40 -29t50 -23q54 -16 122 -16q60 0 112 12q28 4 57 16t61 28v158q-74 -50 -152 -50q-46 0 -76 22 q-24 16 -36 38q-8 24 -8 112v260h240v160h-240v256h-144q-12 -78 -36 -130q-14 -26 -31 -48t-39 -38q-42 -38 -100 -56v-144z" />
<glyph unicode="8" horiz-adv-x="1454" d="M-2 90v1100q0 40 27 66t67 26h1088q38 0 66 -26t28 -66v-1100q0 -38 -28 -65t-66 -27h-1088q-40 0 -67 27t-27 65zM180 968q0 -44 29 -73t77 -29h2q50 0 79 29t29 73q0 40 -29 69t-79 29q-48 0 -78 -29t-30 -69zM192 208h190v580h-190v-580zM490 208h194v324v24 q0 12 4 22q10 26 35 49t65 23q54 0 76 -37t22 -95v-310h192v332q0 134 -63 198t-159 64q-38 0 -66 -10t-48 -24t-34 -32l-24 -32v84h-194q0 -10 1 -41t1 -74v-94v-103q0 -122 -2 -268zM682 702q0 2 2 2v-2h-2z" />
<glyph unicode="9" horiz-adv-x="1310" d="M-2 868q0 72 27 134t73 108t108 73t132 27q50 0 95 -14t85 -38q38 8 88 8q116 0 219 -44t180 -121t121 -180t44 -219q0 -50 -8 -88q24 -40 38 -85t14 -95q0 -70 -27 -132t-73 -108t-108 -73t-134 -27q-50 0 -94 14t-84 38q-40 -8 -88 -8q-118 0 -220 44t-179 121 t-121 179t-44 220q0 48 8 86q-24 40 -38 85t-14 95zM302 446q0 -24 8 -47t24 -47q32 -46 86 -76q76 -40 186 -40q92 0 164 30q34 14 59 34t45 44q16 28 26 56t10 62q0 52 -22 90q-16 36 -56 62q-40 24 -90 42q-26 8 -55 15l-61 15l-44 10q-18 4 -30 8q-20 6 -44 16 q-22 12 -32 28q-12 12 -12 34q0 34 36 56q30 22 94 22t92 -20q14 -10 26 -26t22 -34q14 -30 30 -42q18 -14 42 -14q32 0 50 22q20 20 20 48q0 14 -4 28t-10 30q-16 26 -52 56q-32 26 -86 44q-52 16 -120 16q-90 0 -152 -24q-68 -28 -102 -70q-32 -44 -32 -106q0 -64 30 -102 q38 -44 90 -66q54 -24 138 -42q28 -8 53 -13t43 -11q40 -14 58 -34q24 -22 24 -54q0 -42 -44 -70q-42 -32 -108 -32q-48 0 -80 16q-28 16 -46 36q-8 10 -15 25l-15 31q-14 30 -30 44t-42 14q-32 0 -52 -18q-20 -24 -20 -46z" />
<glyph unicode=":" horiz-adv-x="1382" d="M-2 146v892h1294v-892q0 -60 -43 -103t-103 -43h-1000q-62 0 -105 43t-43 103zM-2 1090v46q0 60 43 103t105 43h126v-192h-274zM256 332q0 -58 63 -92t155 -34q50 0 89 13t65 35t40 50t14 56q0 46 -17 77t-57 61q-16 10 -37 30t-21 36t7 28t33 32q60 44 60 112 q0 40 -17 75t-51 47h68l50 36h-216q-36 0 -68 -13t-58 -34t-41 -49t-15 -60q0 -64 43 -109t117 -45h20l-8 -20q-4 -10 -4 -20q0 -16 9 -32t23 -28h-40q-44 0 -82 -13t-65 -34t-43 -48t-16 -57zM322 1090v192h298v-192h-298zM330 354q0 46 47 79t107 31q16 0 29 -2t27 -6 q32 -22 54 -40t30 -44q0 -4 2 -10t2 -12q0 -46 -35 -78t-119 -32q-64 0 -104 34t-40 80zM376 738q-6 54 18 90t64 34q42 0 75 -38t43 -92q6 -52 -18 -90t-64 -38q-42 2 -75 42t-43 92zM674 1090v192h288v-192h-288zM756 722h140v-138h36v138h136v34h-136v138h-36v-138h-140 v-34zM1012 1090v192h134q60 0 103 -43t43 -103v-46h-280z" />
<glyph unicode=";" horiz-adv-x="1204" d="M0 542q0 108 38 202t105 167t158 119t195 56v102h-50v98h198v-98h-50v-102q78 -8 149 -36t129 -72l110 108l106 -106l-110 -110q52 -68 82 -151t30 -177q0 -112 -43 -211t-117 -173t-174 -117t-212 -43t-211 43t-173 117t-117 173t-43 211zM100 542q0 -92 35 -173 t95 -141t141 -95t173 -35t173 35t142 95t96 141t35 173t-35 173t-96 142t-142 96t-173 35t-173 -35t-141 -96t-95 -142t-35 -173zM446 542q0 28 14 51t36 35v212h98v-212q22 -12 36 -35t14 -51q0 -26 -14 -48t-36 -36v-64h-98v64q-22 14 -36 36t-14 48z" />
<glyph unicode="&#x3c;" horiz-adv-x="1198" d="M242 916q0 78 29 146t80 119t118 80t145 29t145 -29t118 -80t80 -119t29 -146q0 -50 -18 -138t-47 -190t-68 -207t-81 -190t-85 -139t-79 -54q-44 0 -89 54t-85 139t-75 190t-61 207t-41 189t-15 139zM472 970q0 -58 42 -100t100 -42t100 42t42 100t-42 100t-100 42 t-100 -42t-42 -100z" />
<glyph unicode="=" horiz-adv-x="1400" d="M2 194v650q0 36 24 61t58 25h252l54 102q0 12 9 23t25 11h510q12 0 22 -11t10 -23l52 -102h252q34 0 59 -25t25 -61v-650q0 -34 -25 -58t-59 -24h-1186q-34 0 -58 24t-24 58zM338 530q0 -70 27 -131t73 -107t107 -73t131 -27t132 27t108 73t73 107t27 131t-27 132 t-73 108t-108 73t-132 27t-131 -27t-107 -73t-73 -108t-27 -132zM468 530q0 44 16 82t45 66t67 45t80 17q44 0 82 -17t66 -45t45 -66t17 -82q0 -42 -17 -80t-45 -67t-66 -45t-82 -16q-42 0 -80 16t-67 45t-45 67t-16 80z" />
<glyph unicode="&#x3e;" horiz-adv-x="1204" d="M8 75q0 33 22 57l1028 1024q24 22 58 22t58 -22q22 -24 22 -58t-22 -58l-1028 -1024q-24 -22 -57 -22t-59 22q-22 26 -22 59zM392 70q0 34 24 58l650 652q26 24 59 24t57 -24q22 -22 22 -56t-22 -58l-652 -654q-22 -22 -56 -22t-58 22q-24 24 -24 58zM804 89q0 33 22 57 l228 228q24 24 58 24t58 -24q22 -22 22 -56t-22 -56l-230 -232q-24 -22 -58 -22t-56 22q-22 26 -22 59z" />
<glyph unicode="?" horiz-adv-x="1400" d="M2 640q0 134 51 252t138 205t205 137t250 50t249 -50t204 -137t137 -205t50 -252q0 -132 -50 -249t-137 -204t-204 -137t-249 -50t-250 50t-205 137t-138 204t-51 249zM408 960q-8 -40 6 -70q18 -30 52 -38q12 -4 25 -1t23 7q20 12 54 36q16 12 31 22t31 16q26 10 64 4 q44 -8 68 -44q28 -34 18 -74q-12 -52 -42 -66q-26 -16 -82 -22q-30 -2 -52 -3t-34 -5q-24 -6 -30 -36l-26 -128q-8 -38 12 -68q18 -28 60 -38q38 -8 72 10q30 20 38 58l10 46q106 2 180 56q72 56 92 154q18 80 -12 152q-26 70 -90 118q-56 46 -144 64q-42 10 -94 6 q-50 -2 -102 -22q-26 -10 -46 -23t-38 -29q-36 -36 -44 -82zM452 300q-10 -44 14 -76q24 -36 64 -44q44 -10 76 14q36 24 44 64q6 42 -14 76q-24 32 -64 42q-44 10 -76 -14q-38 -22 -44 -62z" />
<glyph unicode="@" d="M-2 66v818q0 28 19 46t47 18h1304q28 0 47 -18t19 -46v-818q0 -28 -19 -47t-47 -19h-1304q-28 0 -47 19t-19 47zM46 831q4 -21 20 -33l620 -458q12 -12 32 -12q18 0 30 12l618 466q16 14 20 34t-10 36q-14 20 -36 22t-38 -8l-584 -446l-588 438q-20 12 -40 8t-34 -20 q-14 -18 -10 -39z" />
<glyph unicode="A" horiz-adv-x="882" d="M1 1010q0 48 13 82q10 26 29 51t41 46t46 38l44 31l4 2q12 10 27 10q9 0 19 -4q22 -10 28 -32l88 -264q10 -16 0 -36q-8 -20 -24 -26l-44 -20q-22 -10 -30 -30t2 -42l32 -92l28 -79q14 -41 28 -69q12 -28 31 -63l35 -67l42 -76q8 -22 29 -30t43 2l44 20q16 10 38 0 q20 -10 26 -24l138 -242q7 -12 7 -24q0 -10 -5 -20q-12 -22 -32 -30h-6q-48 -12 -112 -20q-17 -2 -33 -2q-45 0 -85 16q-36 14 -75 49t-77 86t-74 114t-66 131l-36 76q-4 4 -4 5t-2 5l-9 21q-9 21 -19 47t-20 47t-10 23q-30 68 -52 137t-34 131q-13 68 -13 122z" />
<glyph unicode="B" horiz-adv-x="1466" d="M-2 592v100q0 18 16 34t34 16l60 -6q20 0 39 16t27 34l30 80q10 20 8 42t-18 38l-40 46q-16 10 -16 32t16 38l70 64q10 16 32 16t38 -16l40 -40q16 -16 38 -18t42 8l80 36q18 4 34 22t16 38v60q0 22 13 36t31 14h100q50 0 50 -50v-60q0 -20 14 -38t36 -22l80 -36 q20 -10 42 -8t38 18l40 40q16 16 35 16t35 -16l70 -64q16 -16 16 -38t-16 -32l-40 -46q-16 -16 -19 -38t5 -42l34 -80q8 -18 27 -31t39 -13h60q18 0 34 -16t16 -34v-100q0 -22 -16 -36t-34 -14h-60q-20 0 -39 -13t-27 -33l-34 -84q-8 -20 -5 -42t19 -38l40 -40 q16 -16 16 -35t-16 -35l-70 -70q-16 -16 -35 -16t-35 16l-40 40q-16 16 -38 19t-42 -5l-80 -34q-22 -8 -36 -27t-14 -39v-60q0 -18 -14 -34t-36 -16h-100q-18 0 -31 16t-13 34v60q0 20 -16 39t-34 27l-80 34q-20 8 -42 5t-38 -19l-40 -40q-16 -16 -38 -16t-32 16l-70 70 q-16 16 -16 35t16 35l40 40q16 16 18 38t-8 42l-30 84q-8 20 -27 33t-39 13h-60q-18 0 -34 14t-16 36zM394 642q0 -52 19 -98t52 -80t78 -53t95 -19q52 0 98 19t80 53t53 80t19 98q0 50 -19 95t-53 78t-80 52t-98 19q-50 0 -95 -19t-78 -52t-52 -78t-19 -95z" />
<glyph unicode="C" horiz-adv-x="1574" d="M-2 486v612q0 38 14 71t39 58t59 39t72 14h1042q38 0 71 -14t58 -39t39 -58t14 -71v-612q0 -74 -53 -127t-129 -53h-672v-318l-356 318h-14q-38 0 -72 14t-59 39t-39 58t-14 69z" />
<glyph unicode="D" horiz-adv-x="1466" d="M21 36q-9 16 -9 34q0 26 18 56l628 1086q28 54 71 54t75 -54l626 -1086q19 -31 19 -58q0 -17 -8 -32q-21 -38 -83 -38h-1258q-58 0 -79 38zM640 214q0 -40 26 -66t64 -26q36 0 63 26t27 66q0 38 -27 63t-63 25q-38 0 -64 -25t-26 -63zM642 470q0 -34 25 -58t59 -24h12 q34 0 58 24t24 58v414q0 34 -24 58t-58 24h-12q-34 0 -59 -24t-25 -58v-414z" />
<glyph unicode="E" horiz-adv-x="1502" d="M-4 48l58 310q0 30 22 56l678 676l324 -326l-676 -676q-6 -6 -22 -14t-22 -12l-322 -58q-5 -1 -9 -1q-14 0 -23 10t-9 25q0 4 1 10zM830 1168l102 106q22 18 53 18t53 -18l220 -220q22 -22 22 -53t-22 -53l-106 -106z" />
<glyph unicode="F" horiz-adv-x="1514" d="M4 242q0 -24 16 -42l180 -178q16 -18 41 -18t41 18l60 56h-4l580 578q10 10 -20 57t-86 101t-101 85t-55 21l-4 -2l-620 -620v-4l-12 -10q-16 -18 -16 -42zM434 1620l138 36l76 118l76 -118l134 -36l-88 -108l8 -142l-130 50l-132 -50l10 142zM714 980h4q17 0 56 -26 q44 -30 98 -82q52 -52 82 -97q24 -36 24 -52q0 -4 -2 -7l264 260q18 20 18 44t-18 42l-178 178q-18 18 -42 18t-44 -18zM886 1490l94 24l50 78l50 -78l92 -24l-58 -74l4 -96l-88 34l-88 -34l6 96z" />
<glyph unicode="G" d="M-8 638q0 134 51 252t140 207t207 140t252 51t252 -51t205 -140t138 -207t51 -252q0 -132 -51 -250t-138 -206t-205 -139t-252 -51t-252 51t-207 139t-140 206t-51 250zM204 638q0 -90 34 -169t94 -138t140 -94t170 -35t169 35t138 94t94 138t35 169t-35 170t-94 140 t-138 94t-169 34t-170 -34t-140 -94t-94 -140t-34 -170zM402 638q0 50 19 93t52 76t76 52t93 19q48 0 91 -19t75 -52t51 -76t19 -93q0 -48 -19 -91t-51 -75t-75 -51t-91 -19q-50 0 -93 19t-76 51t-52 75t-19 91z" />
<glyph unicode="H" horiz-adv-x="1300" d="M-2 52v900q0 24 16 40t38 16h488l-108 -108l-8 -8h-272q-16 0 -27 -11t-11 -27v-702q0 -18 11 -28t27 -10h704q16 0 26 10t10 28v264q10 6 14 8l102 104v-476q0 -22 -16 -38t-40 -16h-900q-22 0 -38 16t-16 38zM500 746q0 30 22 52l218 216q10 10 10 25t-10 25l-50 52 q-22 22 -22 50t22 50q14 18 40 22l468 44q36 0 63 -27t27 -63l-46 -466q-4 -26 -18 -40q-22 -22 -52 -22t-50 22l-52 50q-26 20 -52 0l-216 -220q-22 -22 -51 -22t-51 22l-178 178q-22 22 -22 52z" />
<glyph unicode="I" horiz-adv-x="1204" d="M0 335q0 65 25 127t75 112q70 70 161 93q41 10 82 10q50 0 99 -15l418 418l202 -22l22 -200l-158 -40l-22 -140l-150 -32l-18 -136l-72 -72q16 -50 16 -101q0 -40 -10 -80q-22 -91 -92 -161q-50 -50 -112 -75t-127 -25t-127 25t-112 75t-75 112t-25 127zM132 248 q0 -48 34 -82t83 -34t83 34t34 82t-34 82t-83 34t-83 -34t-34 -82z" />
<glyph unicode="J" horiz-adv-x="1460" d="M-8 642q0 134 51 251t139 205t205 139t251 51t251 -51t205 -139t139 -205t51 -251t-51 -251t-139 -205t-205 -139t-251 -51t-251 51t-205 139t-139 205t-51 251zM512 642q0 -54 36 -93t90 -39t92 39t38 93q0 34 -15 61t-39 43v306q0 32 -23 52t-53 20t-51 -20t-21 -52 v-306q-54 -34 -54 -104zM706 470l104 -104q22 -24 52 -24t52 24q22 22 22 53t-22 51l-104 104q-28 -76 -104 -104z" />
<glyph unicode="K" horiz-adv-x="1370" d="M2 412v454q0 16 8 36t20 32l318 320q14 10 34 18t34 8h454q16 0 36 -8t32 -18l316 -320q12 -12 22 -32t10 -36v-454q0 -16 -10 -35t-22 -33l-316 -318q-12 -12 -32 -20t-36 -8h-454q-14 0 -34 8t-34 20l-318 318q-12 14 -20 33t-8 35zM78 406l332 -332h468l332 332v468 l-332 332h-468l-332 -332v-468zM160 438v402l282 284h402l284 -284v-402l-284 -282h-402z" />
<glyph unicode="L" horiz-adv-x="1442" d="M-8 750q0 88 33 161t87 125t124 78q57 21 115 21q13 0 27 -1q72 -6 141 -46t123 -120q52 80 121 120t141 46q14 1 27 1q58 0 114 -21q69 -26 123 -77t87 -123t33 -160q0 -90 -36 -169t-91 -146t-123 -123l-130 -104l-106 -81l-71 -56l-50 -41q-21 -18 -39 -38 q-20 20 -42 38l-52 41l-72 55l-104 82l-129 105q-67 57 -123 123t-92 143t-36 167z" />
<glyph unicode="M" horiz-adv-x="1484" d="M-4 792l432 114l242 378l244 -378l432 -114l-286 -348l26 -444l-416 162l-418 -162l26 444z" />
<glyph unicode="N" d="M8 602q98 136 216 246q50 46 109 90t125 79t138 56t148 21t148 -21t138 -56t124 -79t108 -90q116 -110 214 -246q-98 -138 -214 -246q-50 -46 -108 -90t-124 -78t-138 -55t-148 -21t-148 21t-138 55t-125 78t-109 90q-118 108 -216 246zM436 602q0 -64 24 -119t65 -96 t97 -65t122 -24q62 0 118 24t98 65t66 96t24 119t-24 120t-66 97t-98 65t-118 24q-66 0 -122 -24t-97 -65t-65 -97t-24 -120zM618 602q0 52 37 88t89 36q48 0 83 -36t35 -88q0 -50 -35 -86t-83 -36q-52 0 -89 36t-37 86z" />
<glyph unicode="O" horiz-adv-x="858" d="M8 218l48 184q50 -28 117 -49t145 -21q70 0 111 26t41 72t-39 77t-129 61q-128 44 -207 109t-79 179q0 108 70 184t198 98v152h156v-140q78 -4 134 -18t96 -34l-48 -180q-30 16 -86 36t-142 20q-76 0 -105 -28t-29 -62q0 -38 44 -68t146 -68q142 -48 203 -118t61 -178 q0 -52 -18 -100t-54 -86t-88 -65t-120 -39v-164h-158v152q-80 2 -151 22t-117 46z" />
<glyph unicode="P" horiz-adv-x="1460" d="M176 526q0 116 44 218t120 178t178 120t218 44v104q0 26 17 41t43 15q10 0 19 -1t17 -7l306 -230q27 -28 27 -55.5t-27 -54.5l-306 -228q-16 -10 -36 -10q-26 0 -43 17t-17 39v104q-60 -2 -113 -25t-93 -63t-63 -93t-23 -113q0 -62 23 -116t63 -94t94 -63t116 -23 q54 0 102 18t87 50t65 76t36 96q4 20 25 38t53 18h140q22 0 37 -17t15 -39v-14q-14 -104 -63 -194t-124 -157t-170 -105t-203 -38q-118 0 -220 44t-179 121t-121 179t-44 220z" />
<glyph unicode="Q" horiz-adv-x="1258" d="M2 638v27q0 13 4 27v10q0 6 3 14t3 18v4q4 8 4 13t4 9q0 8 2 17t2 15q4 4 5 8t5 10q0 16 8 32q6 6 6 8v2q12 18 18 40l2 2v2q20 34 43 65t51 59q8 8 16 15t20 15q4 4 6 10q8 4 15 9l15 11h2q136 94 306 94v108l252 -170l-252 -176v112q-76 0 -140 -26t-116 -66 q-2 0 -3 -2t-5 -2l-13 -13q-5 -5 -13 -11v-4q-22 -22 -38 -42t-32 -48h-2q-6 -8 -8 -17t-6 -15v-4q-8 -20 -14 -32v-10q-4 -6 -7 -13t-3 -15t-4 -12q0 -20 -4 -26v-16v-32q-1 -11 -1 -22q0 -52 16 -103q19 -61 55 -115q16 -20 12 -46t-28 -40q-20 -16 -46 -11t-42 23 q-46 70 -72 148t-26 162zM284 166l258 174v-110q70 0 137 25t121 67v4q40 30 69 68t45 86q4 8 7 17l5 15q0 2 4 10q0 4 3 11t3 13t2 8t2 6q0 8 2 14t2 14v8v38q1 12 1 23q0 115 -73 217q-14 22 -9 47t29 37q16 16 36 16q5 0 10 -1q26 -5 42 -25q96 -142 96 -310v-10v-19 q0 -11 -4 -21v-18q0 -8 -2 -13t-2 -13v-10q-6 -6 -6 -20q-4 -6 -4 -14t-4 -16q-4 -4 -4 -12q-4 -10 -7 -21t-7 -21l-4 -6q-50 -118 -150 -198l-6 -4q-6 -8 -13 -12t-19 -12l-2 -4q-64 -46 -141 -69t-159 -23v-106z" />
<glyph unicode="R" horiz-adv-x="1328" d="M0 341q0 33 24 57l326 268q12 14 36 14q28 0 46 -19t18 -45v-66q0 -12 10 -22t24 -10h194q26 0 45 -18t19 -46v-226q0 -28 -19 -46t-45 -18h-194q-14 0 -24 -9t-10 -23v-64q0 -28 -18 -46t-46 -18q-24 0 -36 12l-326 268q-24 24 -24 57zM530 744v226q0 28 19 46t47 18 h194q12 0 22 10t10 24v64q0 26 18 45t46 19q24 0 40 -14l322 -268q24 -24 24 -57t-24 -57l-322 -268q-18 -12 -40 -12q-28 0 -46 18t-18 46v64q0 14 -10 23t-22 9h-194q-28 0 -47 18t-19 46z" />
<glyph unicode="S" d="M-2 102v1082q0 44 30 74t72 30h1084q42 0 72 -30t30 -74v-1082q0 -42 -30 -72t-72 -30h-1084q-42 0 -72 30t-30 72zM144 148q0 -20 14 -34t36 -14h894q22 0 37 14t15 34v446q0 20 -15 34t-37 14h-894q-22 0 -36 -14t-14 -34v-446zM200 212q0 10 8 19t18 9h830q10 0 18 -9 t8 -19t-8 -17t-18 -7h-830q-10 0 -18 7t-8 17zM200 376q0 26 26 26h830q26 0 26 -26t-26 -26h-830q-26 0 -26 26zM200 530q0 26 26 26h830q26 0 26 -26q0 -24 -26 -24h-830q-26 0 -26 24zM244 836q0 -28 17 -45t43 -17h674q28 0 45 17t17 45v388v2h-796v-2v-388zM334 868 v280q0 12 9 20t19 8h106q28 0 28 -28v-280q0 -10 -8 -19t-20 -9h-106q-10 0 -19 9t-9 19z" />
<glyph unicode="T" horiz-adv-x="1358" d="M10 521q0 39 26 67l640 636q16 18 37 24t43 4q6 2 20 2l400 -42h6q34 0 56 -20q19 -18 19 -45q0 -7 -1 -15l14 -368q-2 -8 -7 -21t-11 -26t-13 -25t-13 -18l-640 -638q-28 -28 -65 -28t-65 28l-418 418q-28 28 -28 67zM802 933q0 -55 40 -93q38 -40 92 -40t92 40 q40 38 40 93t-40 95q-38 38 -92 38t-92 -38q-40 -40 -40 -95z" />
<glyph unicode="U" horiz-adv-x="1400" d="M-6 0l252 466q14 -18 28 -38l27 -36q15 -20 31 -36t37 -33t41 -31q22 -16 48 -30zM178 814v11q0 39 13 57q15 20 39 22t54 -8t61 -19t61 -13t52 10q32 20 70 57t69 77t51 79t20 65q0 24 8 47t27 37t50 15h3q30 0 72 -19q76 -32 129 -67t83 -57q2 -2 5 -4t5 -4q2 -4 5 -6 t5 -4q26 -28 64 -78t78 -120q24 -49 24 -84q0 -26 -11 -44q-13 -20 -35 -30t-48 -10q-24 -2 -61 -25t-75 -58t-71 -75t-51 -74q-12 -24 -5 -53t19 -59l24 -60q12 -30 11 -54t-20 -40t-67 -18q-9 -1 -18 -1q-51 0 -105 20q-63 23 -122 57t-107 72t-74 62h-2q-4 2 -8 6t-9 8 t-9 10l-4 2q-22 22 -56 61t-65 88t-55 106t-24 115z" />
<glyph unicode="V" horiz-adv-x="1418" d="M-4 642q0 132 51 249t138 204t204 138t249 51t249 -51t204 -138t138 -204t51 -249t-51 -249t-138 -204t-204 -138t-249 -51t-249 51t-204 138t-138 204t-51 249zM196 642q0 -92 35 -172t95 -140t140 -95t172 -35q130 0 238 68l-612 612q-68 -108 -68 -238zM400 1016 l612 -612q68 108 68 238q0 92 -34 172t-94 140t-141 95t-173 35q-130 0 -238 -68z" />
<glyph unicode="W" horiz-adv-x="1132" d="M2 56v684q0 24 16 42t40 18h42v124q0 72 28 136t76 112t112 76t136 28q74 0 139 -28t113 -76t76 -112t28 -136v-124h38q24 0 40 -18t16 -42v-684q0 -24 -16 -41t-40 -17h-788q-24 0 -40 17t-16 41zM226 800h452v124q0 46 -18 87t-49 72t-72 49t-87 18t-87 -18t-72 -49 t-49 -72t-18 -87v-124z" />
<glyph unicode="X" horiz-adv-x="1484" d="M-8 58v688q0 26 17 42t43 16h624v124q0 48 -18 89t-49 72t-72 49t-89 18t-90 -18t-74 -50l-114 -12l54 -102q-4 -10 -4 -22v-24v-34h-130v34q0 74 28 139t77 114t114 77t139 28t139 -28t114 -77t77 -114t28 -139v-124h38q22 0 39 -16t17 -42v-688q0 -26 -17 -43t-39 -17 h-792q-26 0 -43 17t-17 43z" />
<glyph unicode="Y" d="M2 -2v564l294 720h842l310 -770v-514h-1446zM184 534h282v-284h518v256l294 6l-224 594h-652z" />
<glyph unicode="Z" d="M0 0v566l298 722h844l310 -772v-516h-1452zM186 538h282v-286h518v258l298 6l-228 596h-654zM500 712v24q0 54 42 54h46q8 0 15 3t7 19v130q0 16 13 29t29 13h152q16 0 29 -13t13 -29v-130q0 -16 6 -19t14 -3h42q56 0 56 -54q-4 -2 -6 -6q-4 -8 -4 -18l-182 -224 q-18 -16 -45 -16t-43 16z" />
<glyph unicode="[" horiz-adv-x="1364" d="M20 460q0 30 22 52l486 486q22 22 52 22t52 -22l6 -8l242 244q26 26 62 26t62 -26l238 -238q26 -26 26 -62t-26 -62l-244 -242l2 -4q22 -22 22 -52t-22 -52l-486 -486q-22 -22 -51 -22t-51 22l-370 372q-22 22 -22 52zM110 457q0 -17 12 -29l310 -310q12 -12 29 -12 t29 12l422 424q12 12 12 29t-12 29l-308 310q-12 12 -29 12t-29 -12l-424 -424q-12 -12 -12 -29zM840 1002l20 -18q12 -14 31 -14t31 14l22 18q26 32 0 66l-22 18q-12 14 -31 14t-31 -14l-20 -18q-30 -34 0 -66zM980 882q0 -18 12 -30l20 -22q30 -30 64 0l20 22q14 12 14 30 t-14 32l-20 22q-34 26 -64 0l-20 -22q-12 -14 -12 -32z" />
<glyph unicode="\" horiz-adv-x="1448" d="M-2 646q0 132 50 248t137 203t203 138t250 51q132 0 248 -51t203 -138t138 -203t51 -248q0 -134 -51 -251t-138 -204t-203 -138t-248 -51q-134 0 -250 51t-203 138t-137 204t-50 251zM144 646q0 -102 39 -192t106 -157t157 -106t192 -39t191 39t157 106t107 157t39 192 t-39 191t-107 155t-157 105t-191 39t-192 -39t-157 -105t-106 -155t-39 -191zM360 364l176 384l380 176l-174 -384zM428 436l282 138l-142 140z" />
<glyph unicode="]" horiz-adv-x="1102" d="M9 573q-3 25 13 42t45 31l58 29q29 15 53 32t30 43q10 36 12 88t-3 103t-17 93t-30 60t-27 41t-5 46t25 45t67 38q76 28 139 39t101 15q2 0 6 1t6 1q4 -2 8 -1t6 1q38 -4 101 -13t139 -33q46 -16 69 -38t28 -45t-5 -46t-28 -41q-16 -18 -27 -60t-14 -93t0 -103t15 -90 q8 -24 32 -41t54 -31l59 -27q29 -13 45 -31t14 -42t-36 -60q-40 -44 -103 -71t-129 -42t-126 -20t-96 -7l-2 -2q-4 -2 -10 -2h-24l-4 2q-32 0 -83 5t-108 18t-113 39t-98 68q-34 34 -37 59zM336 308l46 -8q20 -4 44 -7t46 -7q22 -2 50 1t52 7l56 12l-156 -510z" />
<glyph unicode="^" horiz-adv-x="1016" d="M10 500l8 12q4 6 10 8l348 212l-236 90q-18 6 -25 23t-1 33q8 14 20 22l604 368q20 8 38 2q16 -6 24 -23t0 -33q-4 -2 -4 -5t-2 -5l-200 -280l240 -94q18 -6 26 -23t0 -33q-2 -14 -18 -22l-344 -208l232 -92q18 -6 25 -22t1 -34q-4 -16 -18 -20l-606 -368q-16 -12 -36 -2 q-16 4 -24 20t-2 32q4 6 8 14l200 278l-242 94q-18 6 -25 23t-1 33z" />
<glyph unicode="_" horiz-adv-x="1398" d="M2 512q0 132 51 249t138 204t204 138t249 51q134 0 251 -51t204 -138t138 -204t51 -249t-52 -229t-142 -160t-209 -94t-253 -31q-132 0 -247 31t-200 94t-134 160t-49 229zM114 542q0 -106 40 -202q10 -24 22 -20t26 13t30 15t34 -12q70 -72 164 -110q96 -42 202 -42 q108 0 202 42q94 38 166 110q18 18 34 12t29 -15t25 -13t22 20q22 46 38 83t16 89q0 106 -42 202q-38 92 -110 166q-72 72 -166 110q-94 42 -202 42q-106 0 -202 -42q-94 -40 -164 -110q-70 -72 -112 -166l-36 -84q-16 -36 -16 -88zM210 648q0 26 18 46t46 20t45 -20t17 -46 q0 -24 -17 -43t-45 -19t-46 19t-18 43zM344 824q0 28 17 48t45 20q30 0 47 -20t17 -48q0 -24 -17 -42t-47 -18q-28 0 -45 18t-17 42zM508 373q0 47 30 93q14 22 53 63t81 79t78 63t46 17q14 -8 5 -51t-28 -96t-43 -103t-40 -74q-30 -46 -74 -64t-76 4t-32 69zM576 902 q0 28 18 47t46 19t45 -19t17 -47q0 -26 -17 -44t-45 -18t-46 18t-18 44zM812 820q0 28 19 48t47 20t44 -20t16 -48q0 -24 -16 -42t-44 -18t-47 18t-19 42zM966 620q0 26 19 46t47 20t44 -20t16 -46t-16 -44t-44 -18t-47 18t-19 44z" />
<glyph unicode="`" horiz-adv-x="512" d="M0 768v512h256v-512h-256z" />
<glyph unicode="a" horiz-adv-x="1144" d="M-2 1052v54q0 16 20 30q20 6 38 14q16 6 31 13t21 13q4 6 11 20t13 30q8 18 12 38q4 6 9 15t19 9h180h280h180q14 0 19 -9t9 -15q4 -20 12 -38q6 -16 13 -30t13 -20t20 -13t30 -13q18 -8 38 -14q22 -14 22 -30v-54q0 -22 -22 -22h-334h-280h-334q-20 0 -20 22zM86 970 h818l-82 -930q0 -16 -12 -28t-28 -12h-574q-16 0 -28 12t-12 28zM364 1144q0 -22 20 -22h218q20 0 20 22v14q0 20 -20 20h-218q-20 0 -20 -20v-14z" />
<glyph unicode="b" horiz-adv-x="1200" d="M0 78q0 -34 22 -56t56 -22h940q30 0 53 22t23 56v938q0 32 -23 55t-53 23h-34v-90q0 -34 -13 -63t-35 -50t-51 -34t-61 -13q-68 0 -113 47t-45 113v90h-10h-226h-2v-90q0 -66 -47 -113t-113 -47q-64 0 -111 47t-47 113v90h-32q-34 0 -56 -23t-22 -55v-938zM102 170v532 q0 24 18 41t42 17h772q24 0 42 -17t18 -41v-532q0 -24 -18 -41t-42 -17h-772q-24 0 -42 17t-18 41zM142 588v106q0 14 14 14h4q8 0 14 -6l34 -58l38 58q2 6 12 6h2q6 0 12 -4t6 -10v-104q0 -6 -6 -12t-12 -6q-4 0 -9 6t-5 12v66l-24 -40q-8 -8 -14 -8t-12 8l-26 38v-66 q0 -4 -4 -10t-10 -6t-10 6t-4 10zM176 1026v160q0 40 26 68t66 28t67 -28t27 -68v-160q0 -40 -27 -67t-67 -27t-66 27t-26 67zM286 588v4l46 108q8 12 18 12h2q14 0 18 -12l46 -108q0 -2 2 -2l2 -2q0 -4 -6 -10t-10 -6q-6 0 -8 4t-6 8l-8 20h-62l-8 -20q-4 -12 -14 -12 q-4 0 -8 6t-4 10zM332 630h38l-20 46zM428 590v104q0 14 14 14h46q28 0 38 -12q12 -12 12 -30q0 -34 -26 -42l20 -26q6 -6 6 -10q0 -16 -14 -16q-8 0 -10 3t-6 7l-28 36h-24v-28q0 -6 -3 -12t-11 -6q-6 0 -10 6t-4 12zM436 460q0 30 26 34l52 14q12 4 20 7t18 3q18 0 29 -12 t11 -28v-292q0 -18 -11 -30t-29 -12q-16 0 -27 12t-11 30v250l-28 -8h-14q-14 0 -25 9t-11 23zM456 644h30q22 0 22 18q0 20 -22 20h-30v-38zM644 478q0 16 10 25t26 9h196q34 0 34 -34q0 -22 -10 -42l-146 -262q-16 -30 -36 -30q-18 0 -31 11t-13 27q0 4 3 12t5 12l136 236 h-138q-16 0 -26 10t-10 26zM728 1026v160q0 40 28 68t68 28t66 -28t26 -68v-160q0 -40 -26 -67t-66 -27t-68 27t-28 67z" />
<glyph unicode="c" horiz-adv-x="1466" d="M24 319q0 57 22 112t66 99l192 192l144 144q58 58 138 73q32 6 65 6q47 0 93 -13q30 -6 64 -25t62 -41v-10q14 -14 22 -26t14 -24t10 -25t12 -31l-136 -124q0 36 -6 53t-42 53t-92 41q-8 1 -17 1q-46 0 -83 -24q-6 -8 -12 -10t-6 -8l-230 -222l-58 -66q-44 -44 -44 -106 t44 -106t106 -44t104 44l20 20q52 -16 106 -19h13q47 0 93 19l-144 -154q-44 -40 -99 -60t-113 -20t-113 20t-99 60l-8 18q-44 40 -66 93t-22 110zM408 520l136 124q0 -18 1 -29t5 -20t14 -19l28 -28q36 -42 92 -44h7q52 0 93 26q6 0 12 6t6 12l230 222l58 58q44 42 44 104 t-44 106t-106 44t-104 -44l-20 -18q-52 22 -106 23h-6q-51 0 -100 -15l144 144q44 44 99 65t113 21t113 -21t99 -65l8 -8q44 -44 65 -98t21 -109t-21 -109t-65 -98l-192 -192l-144 -144q-58 -58 -138 -78q-38 -10 -76 -10q-41 0 -82 12q-30 8 -64 28t-62 48v10 q-28 28 -36 44t-22 52z" />
<glyph unicode="d" horiz-adv-x="1072" d="M2 864v162q0 24 17 43t43 19h162v162q0 14 9 24t23 10h440q16 0 25 -10t9 -24v-162h178q24 0 42 -19t18 -43v-162h-966zM62 102v676h844v-676q0 -42 -30 -72t-72 -30h-638q-44 0 -74 30t-30 72zM252 162q0 -18 11 -32t29 -14q20 0 32 14t12 32v464q0 46 -44 46 q-40 0 -40 -46v-464zM312 1088h330v64q0 14 -10 23t-24 9h-262q-14 0 -24 -9t-10 -23v-64zM446 162q0 -18 14 -32t30 -14q20 0 32 14t12 32v464q0 46 -44 46q-16 0 -30 -12t-14 -34v-464zM630 162q0 -18 12 -32t32 -14q16 0 30 14t14 32v464q0 22 -14 34t-30 12 q-44 0 -44 -46v-464z" />
<glyph unicode="e" horiz-adv-x="1430" d="M4 850q-1 8 -1 17q0 79 53 129q58 56 148 62q10 1 20 1q77 0 136 -42q66 -47 76 -137q2 -46 -16 -78t-46 -64l142 -66l512 348q44 25 89 25l31 -3q60 -12 124 -50l-612 -388l658 -302q-58 -46 -116 -65q-26 -8 -52 -8q-33 0 -68 13l-556 276l-130 -84q34 -26 53 -53 t23 -73q1 -11 1 -21q0 -77 -53 -126q-60 -55 -148 -61q-13 -1 -26 -1q-75 0 -132 40q-66 47 -72 137q-1 8 -1 17q0 79 53 128q58 55 146 61l150 104l-170 86q-86 0 -149 46t-67 132zM86 856q4 -56 45 -81q35 -22 82 -22q7 0 15 1q54 4 90 35q32 28 32 74v11q-4 56 -44 80 q-34 21 -79 21q-7 0 -15 -1q-56 -4 -93 -33q-33 -26 -33 -74v-11zM126 282q4 -54 44 -80q35 -23 80 -23q7 0 14 1q56 4 93 35q33 28 33 76v11q-4 54 -45 79q-35 22 -80 22q-7 0 -15 -1q-54 -4 -91 -34q-33 -27 -33 -75v-11z" />
<glyph unicode="f" horiz-adv-x="1258" d="M2 110v1070q0 46 31 77t77 31h856q46 0 77 -31t31 -77v-1070q0 -46 -31 -77t-77 -31h-856q-46 0 -77 31t-31 77zM218 592l322 -320l322 320h-218v374h-212v-374h-214z" />
<glyph unicode="g" horiz-adv-x="864" d="M-2 346v688q0 4 4 40t28 80q62 126 214 126q76 0 131 -32t83 -94q24 -44 28 -80t4 -40v-638q0 -22 -8 -49t-25 -49t-45 -37t-68 -15q-42 0 -70 15t-46 37t-26 49t-8 49v442q0 22 14 36t36 14t36 -14t14 -36v-442q0 -16 10 -33t40 -17q28 0 37 17t9 33v638q0 8 -3 33 t-17 50t-44 45t-82 20q-88 0 -128 -70q-8 -16 -11 -30l-5 -24q-2 -12 -2 -24v-688q0 -10 5 -50t28 -83t73 -78t140 -35t140 37t74 82t28 84t4 43v738q0 22 14 36t32 14q22 0 36 -14t14 -36v-738q0 -44 -15 -104t-54 -114t-105 -91t-168 -37t-169 37t-106 91t-55 114t-16 104 z" />
<glyph unicode="h" horiz-adv-x="1460" d="M-4 170q0 72 51 123t123 51t122 -51t50 -123q0 -68 -50 -118t-122 -50q-36 0 -68 14t-55 37t-37 53t-14 64zM10 618v228q170 -4 321 -71t263 -179t178 -263t68 -321h-228q0 120 -46 229t-132 195q-86 90 -195 136t-229 46zM10 1060v224q174 -2 336 -48t302 -130t256 -200 t199 -257t130 -302t49 -335h-228q-2 216 -84 406t-224 332t-331 225t-405 85z" />
<glyph unicode="i" horiz-adv-x="1412" d="M0 640q0 134 51 252t138 205t205 137t250 50t249 -50t204 -137t137 -205t50 -252q0 -132 -50 -249t-137 -204t-204 -137t-249 -50t-250 50t-205 137t-138 204t-51 249zM530 1058q0 -48 32 -80q34 -34 78 -34t78 34q32 36 32 80q0 24 -16 50q-16 28 -40 40q-22 16 -54 16 q-42 0 -78 -32q-32 -34 -32 -74zM542 238q0 -50 28 -78q24 -30 70 -30q26 0 52 14q10 8 19 17t15 21q4 12 8 26t4 30v524q0 16 -4 30t-8 26q-6 14 -15 23t-19 15q-26 16 -52 16q-44 0 -70 -32q-28 -28 -28 -78v-524z" />
<glyph unicode="j" d="M-4 260v640q0 28 17 49t45 21h1276q28 0 45 -21t17 -49v-640q0 -24 -17 -43t-45 -19h-162v372h-958v-372h-156q-28 0 -45 19t-17 43zM288 1038v236h804l6 -236h-810zM294 154v342h804v-492h-654z" />
<glyph unicode="k" horiz-adv-x="1072" d="M-4 58v1160q0 26 17 42t41 16h456l396 -392v-826q0 -24 -17 -41t-41 -17h-794q-24 0 -41 17t-17 41z" />
<glyph unicode="l" horiz-adv-x="1112" d="M4 638v614q0 10 9 19t23 9h240l208 -208v-38h-212q-22 0 -38 -17t-16 -41v-372h-182q-14 0 -23 10t-9 24zM312 16v884q0 16 13 29t33 13h344l300 -296v-630q0 -18 -14 -30t-32 -12h-598q-20 0 -33 12t-13 30z" />
<glyph unicode="m" horiz-adv-x="1126" d="M-4 58v1160q0 26 17 42t41 16h456l396 -392v-826q0 -24 -17 -41t-41 -17h-794q-24 0 -41 17t-17 41zM86 510q0 -76 28 -141t78 -115t115 -78t141 -28q74 0 141 28t116 78t78 115t29 141q0 74 -29 141t-78 116t-116 78t-141 29q-76 0 -141 -29t-115 -78t-78 -116t-28 -141 zM198 510q0 38 11 71t29 63l344 -344q-30 -18 -63 -29t-71 -11q-52 0 -97 20t-79 54t-54 79t-20 97zM314 722q58 38 134 38q52 0 98 -20t80 -54t53 -79t19 -97q0 -76 -38 -134z" />
<glyph unicode="n" d="M0 482q-4 -16 10 -30l138 -136q6 -6 10 -6l296 -300q15 -12 30 -12l30 12l136 140q12 10 12 28t-12 28l-276 276l276 278q12 10 12 28t-12 28l-136 138q-15 13 -30 13l-30 -13l-296 -298q-4 0 -5 -2t-5 -4l-138 -136q-14 -14 -10 -32zM798 178q0 18 10 28l276 276 l-276 278q-10 10 -10 28t10 28l138 138q14 14 28.5 14t29.5 -14l296 -298q4 0 5 -2t5 -4l138 -136q14 -14 10 -32q4 -16 -10 -30l-138 -136q-6 -6 -10 -6l-296 -300q-15 -12 -30 -12l-30 12l-136 140q-10 10 -10 28z" />
<glyph unicode="o" horiz-adv-x="1340" d="M-4 100l48 208l512 514l-100 100l154 154q20 20 47 29t56 9t56 -9t45 -29l156 154q26 26 59 38t69 12q74 0 126 -52t52 -126q0 -76 -50 -126v-2l-154 -156q20 -18 29 -45t9 -56t-9 -56t-29 -47l-154 -154l-104 102l-510 -514l-208 -48q-40 0 -70 30t-30 70z" />
<glyph unicode="p" horiz-adv-x="1466" d="M15 423q17 37 54 55t85 22t88 8q4 2 9 6t9 8l-80 150l-80 148l136 81l136 83q16 -20 21 -46t6 -54l2 -56q1 -28 11 -49t34 -34q21 -11 58 -11h12q44 0 84 26t64 65q26 42 26 90q0 42 -28 79q-18 10 -38 16l-38 11q-18 5 -31 11t-17 18q-10 26 -3 26t7 8l132 77l128 77 l40 -79q22 -45 47 -87t51 -76t50 -42q14 8 24 18q4 60 44 98t90 44q8 1 16 1q41 0 81 -26q47 -31 63 -109q6 -32 6 -55q0 -16 -3 -29q-7 -30 -26 -47t-47 -23t-59 -10t-60 -10t-51 -22q34 -76 73 -152l75 -148q-26 -16 -60 -39l-70 -46q-36 -23 -73 -42t-69 -25 q-10 4 -12 14t-6 14q4 26 4 50q0 39 -10 73q-16 55 -52 80q-24 16 -55 16q-16 0 -34 -4q-53 -13 -117 -81q-36 -38 -39 -69t13 -58t44 -48l54 -39l45 -31q19 -13 15 -23l-129 -77q-63 -37 -127 -79l-91 142l-91 142q-6 -4 -16 -7t-18 -5q-14 -48 -51 -92t-83 -59 q-17 -6 -34 -6q-29 0 -57 16q-45 25 -75 113q-14 42 -14 72q0 22 7 37z" />
<glyph unicode="q" horiz-adv-x="1620" d="M0 1096v4q0 38 58 71t159 57t237 38t290 14t290 -14t237 -38t159 -57t58 -71v-4q0 -44 -36 -94t-91 -103t-123 -109l-131 -109q-63 -53 -114 -104t-73 -95v-392q0 -38 -52 -63t-124 -25t-124 25t-52 63v392q-22 44 -72 95t-113 104l-131 109q-68 56 -124 109t-92 103 t-36 94zM172 1104q0 -22 45 -39t123 -31t182 -21t222 -7t222 7t182 21t123 31t45 39q0 20 -45 38t-123 32t-182 22t-222 8t-222 -8t-182 -22t-123 -32t-45 -38z" />
<glyph unicode="r" horiz-adv-x="1442" d="M2 776q0 106 40 199t108 162t160 109t198 40t198 -40t161 -109t109 -162t40 -199q0 -76 -21 -146t-59 -128q4 -4 5 -6t5 -6l308 -306q30 -32 30 -76t-30 -76q-16 -16 -37 -24t-39 -8q-46 0 -78 32l-308 308q-2 4 -2 6t-4 6q-62 -40 -132 -62t-146 -22q-106 0 -198 40 t-160 109t-108 162t-40 197zM160 776q0 -72 27 -135t75 -110t111 -75t135 -28t136 28t111 75t74 110t27 135t-27 135t-74 110t-111 75t-136 28t-135 -28t-111 -75t-75 -110t-27 -135z" />
<glyph unicode="s" horiz-adv-x="1152" d="M-6 158q0 30 15 74t41 98t59 112l67 116q80 132 184 282v346h-22q-20 0 -34 13t-14 35q0 18 14 31t34 13h358q20 0 33 -13t13 -31q0 -22 -13 -35t-33 -13h-24v-346q102 -150 182 -282l67 -116q33 -58 59 -112t42 -98t16 -74q0 -58 -25 -89t-53 -47q-36 -18 -78 -20h-368 h-364q-44 2 -78 20q-30 16 -54 47t-24 89z" />
<glyph unicode="t" horiz-adv-x="1466" d="M0 70v876q0 30 22 53t54 23h226v218q0 16 12 29t28 13h698q18 0 30 -13t12 -29v-218h226q30 0 52 -23t22 -53v-876q0 -32 -22 -52t-52 -20h-1232q-32 0 -54 20t-22 52zM412 1022h560v96q0 16 -13 28t-29 12h-478q-16 0 -28 -12t-12 -28v-96z" />
<glyph unicode="u" d="M0 1138q0 28 21 47t45 19q26 0 44 -14h4l200 -172l1152 -94q28 0 49 -19t21 -43l-108 -562q0 -26 -20 -46t-48 -20h-984q-28 0 -47 20t-19 46l-82 614l-204 176q-24 18 -24 48zM294 90q0 36 28 63t64 27q34 0 62 -27t28 -63t-28 -63t-62 -27q-36 0 -64 27t-28 63z M1246 96q0 34 28 59t62 25q36 -4 61 -29t25 -65q0 -36 -27 -61t-63 -25t-63 28q-24 24 -24 58q0 5 1 10z" />
<glyph unicode="v" horiz-adv-x="1346" d="M64 376v108l482 322v374q2 30 14 54q10 20 32 37t62 17t62 -17t32 -37q12 -24 14 -54v-374l480 -322v-108l-480 162v-300l160 -128v-108l-268 108l-268 -108v108l160 128v300z" />
<glyph unicode="w" horiz-adv-x="1172" d="M-2 184v146q-2 6 -2 20q2 6 2 18q10 -34 43 -68t93 -60q72 -34 163 -49t187 -15q98 0 191 17t169 51q70 30 108 67t48 75q4 -20 4 -30q-2 -2 -2 -8v-146q2 -8 2 -20q-2 -2 -2 -6v-4q-6 -40 -45 -79t-113 -69q-76 -34 -169 -51t-191 -19q-96 0 -187 15t-163 49 q-138 63 -138 153q0 3 1 7t1 6zM-2 504v144q-2 8 -2 22q2 4 2 8v8q18 -72 136 -128q72 -32 163 -48t187 -16q98 2 191 18t169 50q70 30 108 67t48 77q2 -8 3 -15t1 -17q-2 0 -2 -4v-150q2 -4 2 -18q-2 -2 -2 -8v-2q-6 -40 -45 -79t-113 -71q-76 -34 -169 -51t-191 -17h-20 q-85 0 -167 15q-91 17 -163 49q-72 34 -107 75q-31 37 -31 74q0 4 1 8.5t1 8.5zM-2 812v146q-2 6 -2 20q2 6 2 18q18 -76 136 -128q72 -34 163 -49t187 -15q98 0 191 17t169 49q70 30 108 67t48 77q4 -20 4 -30q-2 -2 -2 -6v-148q2 -6 2 -20q-2 -2 -2 -4v-2v-2 q-6 -42 -45 -81t-113 -71q-76 -34 -169 -50t-191 -16h-21q-85 0 -166 14q-91 16 -163 50q-72 32 -107 73q-31 37 -31 74q0 4 1 8.5t1 8.5zM-2 1090q10 40 49 77t107 67q76 34 170 50t192 18q96 0 188 -15t162 -49q118 -54 134 -128q-20 -82 -156 -142q-76 -34 -169 -51 t-191 -17h-21q-85 0 -166 14q-91 16 -163 48q-118 56 -136 128z" />
<glyph unicode="x" horiz-adv-x="1358" d="M-8 -8l60 116q34 66 85 124t124 96q69 36 168 36h11q34 0 54 23t20 55q0 10 -15 29t-31 37q-20 22 -44 46q-36 38 -64 85t-46 98t-27 102t-9 97q0 70 26 132t72 109t108 74t134 27h2q70 0 132 -27t108 -74t73 -109t27 -132q0 -46 -9 -97t-27 -102t-45 -98t-63 -85 q-26 -24 -46 -46q-16 -18 -30 -37t-14 -29q0 -32 20 -55t48 -23h11q101 0 171 -36q74 -38 126 -96t86 -124l60 -116h-628h-628z" />
<glyph unicode="y" horiz-adv-x="1298" d="M2 479q0 11 8 17l142 144q8 4 18 4t18 -8v-2h300v210h-384q-14 0 -14 12v288q0 12 14 12h384v108q0 18 20 18h102q20 0 20 -18v-108h340v4q22 18 40 0l138 -142q9 -7 9 -16q0 -10 -9 -22l-138 -138q-8 -8 -19 -8t-19 8v2h-342v-210h426q14 0 14 -12v-288q0 -12 -14 -12 h-426v-304q0 -20 -20 -20h-102q-20 0 -20 20v304h-300v-2q-18 -18 -36 2l-140 136q-10 10 -10 21z" />
<glyph unicode="z" horiz-adv-x="1072" d="M2 22v1246q0 20 20 20h100q20 0 20 -20v-88q34 8 107 20t175 12q70 0 147 -6t143 -12l152 -16l-142 -236l142 -228q-74 6 -152 14q-66 6 -143 11t-147 5q-102 0 -175 -11t-107 -17v-694q0 -20 -20 -20h-100q-20 0 -20 20z" />
<glyph unicode="{" horiz-adv-x="638" d="M0 8v1268h452v-1268l-226 226z" />
<glyph unicode="|" horiz-adv-x="822" d="M28 82l144 540q42 -22 82 -12q2 -36 24 -66t60 -40q36 -10 68 5t54 45q16 -16 35 -22t39 -8l-144 -538l-80 139q-28 49 -59 60t-80 -16t-143 -87zM126 1030q10 36 39 57t65 23q-8 36 6 70t48 54q32 20 69 14t63 -30q20 32 54 45t70 3t58 -38t24 -64q38 8 71 -6t53 -48 q18 -34 13 -70t-31 -62q32 -22 46 -55t4 -69q-10 -38 -38 -60t-66 -24q10 -34 -4 -69t-48 -53q-34 -20 -69 -15t-63 29q-22 -30 -55 -45t-69 -5t-59 40t-25 66q-34 -8 -69 6t-53 48q-20 32 -15 69t29 63q-30 20 -44 53t-4 73zM308 980q-16 -62 15 -115t93 -69q30 -8 59 -3 t54 19t43 37t26 53q16 60 -15 114t-91 70t-114 -15t-70 -91z" />
<glyph unicode="}" horiz-adv-x="1406" d="M2 652q0 70 17 136t47 124l522 -260l-250 -532q-74 36 -136 90t-106 123t-69 150t-25 169zM190 990q36 72 90 131t121 102t146 67t165 24q120 0 227 -46t186 -126t125 -187t46 -229q0 -92 -27 -175t-75 -153t-115 -124t-147 -86q-10 22 -24 57l-31 77l-36 88l-37 92 l-92 224zM412 4l250 532l92 -226l37 -92l36 -88l32 -78q15 -36 25 -58q-104 -46 -222 -46q-134 0 -250 56z" />
<glyph unicode="~" d="M4 605q8 45 40 73l568 572q34 28 79 27t75 -35l562 -556q32 -34 36 -80t-28 -74h-8v-484q0 -22 -16 -38t-38 -16h-242v454q0 32 -23 55t-53 23h-224q-32 0 -54 -23t-22 -55v-454h-566q-20 0 -37 16t-17 38v478h-8q-32 34 -24 79z" />
<glyph unicode="&#xaa;" horiz-adv-x="1144" d="M-2 1052v54q0 16 20 30q20 6 38 14q16 6 31 13t21 13q4 6 11 20t13 30q8 18 12 38q4 6 9 15t19 9h180h280h180q14 0 19 -9t9 -15q4 -20 12 -38q6 -16 13 -30t13 -20t20 -13t30 -13q18 -8 38 -14q22 -14 22 -30v-54q0 -22 -22 -22h-334h-280h-334q-20 0 -20 22zM86 970 h818l-82 -930q0 -16 -12 -28t-28 -12h-574q-16 0 -28 12t-12 28zM364 1144q0 -22 20 -22h218q20 0 20 22v14q0 20 -20 20h-218q-20 0 -20 -20v-14z" />
<glyph unicode="&#xad;" horiz-adv-x="1364" d="M0 230v822q0 50 19 93t51 75t75 50t91 18h828q48 0 90 -18t73 -50t49 -75t18 -93v-822q0 -48 -18 -91t-49 -75t-73 -51t-90 -19h-828q-48 0 -91 19t-75 51t-51 75t-19 91zM236 526h532h296v230h-296h-532v-230z" />
<glyph unicode="&#xb2;" horiz-adv-x="1460" d="M0 2v1280h1282v-1280h-1282zM584 640h116v-548h232v548h152l22 196h-174v110q0 26 12 42t42 16h120v186h-174q-70 -2 -115 -22t-71 -52t-36 -76t-10 -94v-110h-116v-196z" />
<glyph unicode="&#xb3;" d="M4 606q0 76 29 143t80 118t119 80t146 29q104 0 189 -51t137 -135q46 84 132 135t188 51q78 0 146 -29t119 -80t81 -118t30 -143q0 -78 -30 -147t-81 -120t-119 -81t-146 -30q-102 0 -188 52t-132 138q-52 -86 -137 -138t-189 -52q-78 0 -146 30t-119 81t-80 120t-29 147 zM752 606q0 -58 21 -109t61 -87q74 -80 190 -80q58 0 108 20t86 60q82 76 82 196q0 110 -82 192q-36 36 -86 57t-108 21q-56 0 -105 -21t-85 -57q-40 -40 -61 -89t-21 -103z" />
<glyph unicode="&#xb9;" horiz-adv-x="1198" d="M-80 284q62 8 114 16l78 11q36 5 36 9t-24 14t-52 20q-34 12 -74 28l64 16q24 6 42 10t14 2q58 22 123 30t123 32q16 6 52 32t76 60t75 68t47 56l22 43l19 37q9 18 17 37t14 45l15 65q7 31 39 49q28 18 64 18t68 -8q24 -6 53 -31t56 -56t46 -60t23 -43q2 -4 -23 -5 t-55 -1t-58 1t-32 -1q-4 0 -8 -4q-20 -10 -28 -26t-9 -34t4 -36t11 -36q6 -16 19 -33t21 -33q12 -28 14 -59t-2 -63q-4 -28 -18 -52t-34 -45t-42 -40l-42 -35q-24 -18 -48 -26t-44 -16t-34 -23t-18 -49t-6 -48t-3 -18t-1 -6t-2 -14q0 -2 16 -4t37 -4l41 -4q20 -2 28 -6 t21 -12t24 -17t19 -18t8 -11q0 -4 -45 -5t-100 -1t-102 1t-53 5q-6 2 2 13t19 23t21 24t10 16t-1 23l-2 40q-1 21 -5 40t-10 23q-14 10 -42 16t-58 16q-44 14 -98 11t-100 -3q-70 0 -141 -12t-141 -12z" />
<glyph unicode="&#xba;" horiz-adv-x="1340" d="M-4 100l48 208l512 514l-100 100l154 154q20 20 47 29t56 9t56 -9t45 -29l156 154q26 26 59 38t69 12q74 0 126 -52t52 -126q0 -76 -50 -126v-2l-154 -156q20 -18 29 -45t9 -56t-9 -56t-29 -47l-154 -154l-104 102l-510 -514l-208 -48q-40 0 -70 30t-30 70z" />
<glyph unicode="&#xc0;" horiz-adv-x="882" d="M276 1412v512h256v-512h-256zM1 1010q0 48 13 82q10 26 29 51t41 46t46 38l44 31l4 2q12 10 27 10q9 0 19 -4q22 -10 28 -32l88 -264q10 -16 0 -36q-8 -20 -24 -26l-44 -20q-22 -10 -30 -30t2 -42l32 -92l28 -79q14 -41 28 -69q12 -28 31 -63l35 -67l42 -76q8 -22 29 -30 t43 2l44 20q16 10 38 0q20 -10 26 -24l138 -242q7 -12 7 -24q0 -10 -5 -20q-12 -22 -32 -30h-6q-48 -12 -112 -20q-17 -2 -33 -2q-45 0 -85 16q-36 14 -75 49t-77 86t-74 114t-66 131l-36 76q-4 4 -4 5t-2 5l-9 21q-9 21 -19 47t-20 47t-10 23q-30 68 -52 137t-34 131 q-13 68 -13 122z" />
<glyph unicode="&#xc2;" horiz-adv-x="882" d="M854 1910l8 12q4 6 10 8l348 212l-236 90q-18 6 -25 23t-1 33q8 14 20 22l604 368q20 8 38 2q16 -6 24 -23t0 -33q-4 -2 -4 -5t-2 -5l-200 -280l240 -94q18 -6 26 -23t0 -33q-2 -14 -18 -22l-344 -208l232 -92q18 -6 25 -22t1 -34q-4 -16 -18 -20l-606 -368 q-16 -12 -36 -2q-16 4 -24 20t-2 32q4 6 8 14l200 278l-242 94q-18 6 -25 23t-1 33zM1 1010q0 48 13 82q10 26 29 51t41 46t46 38l44 31l4 2q12 10 27 10q9 0 19 -4q22 -10 28 -32l88 -264q10 -16 0 -36q-8 -20 -24 -26l-44 -20q-22 -10 -30 -30t2 -42l32 -92l28 -79 q14 -41 28 -69q12 -28 31 -63l35 -67l42 -76q8 -22 29 -30t43 2l44 20q16 10 38 0q20 -10 26 -24l138 -242q7 -12 7 -24q0 -10 -5 -20q-12 -22 -32 -30h-6q-48 -12 -112 -20q-17 -2 -33 -2q-45 0 -85 16q-36 14 -75 49t-77 86t-74 114t-66 131l-36 76q-4 4 -4 5t-2 5l-9 21 q-9 21 -19 47t-20 47t-10 23q-30 68 -52 137t-34 131q-13 68 -13 122z" />
<glyph unicode="&#xc3;" horiz-adv-x="882" d="M322 2023q8 45 40 73l568 572q34 28 79 27t75 -35l562 -556q32 -34 36 -80t-28 -74h-8v-484q0 -22 -16 -38t-38 -16h-242v454q0 32 -23 55t-53 23h-224q-32 0 -54 -23t-22 -55v-454h-566q-20 0 -37 16t-17 38v478h-8q-32 34 -24 79zM1 1010q0 48 13 82q10 26 29 51t41 46 t46 38l44 31l4 2q12 10 27 10q9 0 19 -4q22 -10 28 -32l88 -264q10 -16 0 -36q-8 -20 -24 -26l-44 -20q-22 -10 -30 -30t2 -42l32 -92l28 -79q14 -41 28 -69q12 -28 31 -63l35 -67l42 -76q8 -22 29 -30t43 2l44 20q16 10 38 0q20 -10 26 -24l138 -242q7 -12 7 -24 q0 -10 -5 -20q-12 -22 -32 -30h-6q-48 -12 -112 -20q-17 -2 -33 -2q-45 0 -85 16q-36 14 -75 49t-77 86t-74 114t-66 131l-36 76q-4 4 -4 5t-2 5l-9 21q-9 21 -19 47t-20 47t-10 23q-30 68 -52 137t-34 131q-13 68 -13 122z" />
<glyph unicode="&#xc8;" horiz-adv-x="1502" d="M1028 1414v512h256v-512h-256zM-4 48l58 310q0 30 22 56l678 676l324 -326l-676 -676q-6 -6 -22 -14t-22 -12l-322 -58q-5 -1 -9 -1q-14 0 -23 10t-9 25q0 4 1 10zM830 1168l102 106q22 18 53 18t53 -18l220 -220q22 -22 22 -53t-22 -53l-106 -106z" />
<glyph unicode="&#xc9;" horiz-adv-x="1144" d="M-2 106v944q0 40 23 73t83 33h92v26q0 40 16 70t36 30h288q20 0 36 -30t16 -70v-26h92q60 0 83 -33t23 -73v-944q0 -60 -23 -83t-83 -23h-576q-60 0 -83 23t-23 83z" />
<glyph unicode="&#xca;" horiz-adv-x="1502" d="M1606 1912l8 12q4 6 10 8l348 212l-236 90q-18 6 -25 23t-1 33q8 14 20 22l604 368q20 8 38 2q16 -6 24 -23t0 -33q-4 -2 -4 -5t-2 -5l-200 -280l240 -94q18 -6 26 -23t0 -33q-2 -14 -18 -22l-344 -208l232 -92q18 -6 25 -22t1 -34q-4 -16 -18 -20l-606 -368 q-16 -12 -36 -2q-16 4 -24 20t-2 32q4 6 8 14l200 278l-242 94q-18 6 -25 23t-1 33zM-4 48l58 310q0 30 22 56l678 676l324 -326l-676 -676q-6 -6 -22 -14t-22 -12l-322 -58q-5 -1 -9 -1q-14 0 -23 10t-9 25q0 4 1 10zM830 1168l102 106q22 18 53 18t53 -18l220 -220 q22 -22 22 -53t-22 -53l-106 -106z" />
<glyph unicode="&#xcc;" horiz-adv-x="1204" d="M1192 1412v512h256v-512h-256zM0 335q0 65 25 127t75 112q70 70 161 93q41 10 82 10q50 0 99 -15l418 418l202 -22l22 -200l-158 -40l-22 -140l-150 -32l-18 -136l-72 -72q16 -50 16 -101q0 -40 -10 -80q-22 -91 -92 -161q-50 -50 -112 -75t-127 -25t-127 25t-112 75 t-75 112t-25 127zM132 248q0 -48 34 -82t83 -34t83 34t34 82t-34 82t-83 34t-83 -34t-34 -82z" />
<glyph unicode="&#xce;" horiz-adv-x="1204" d="M1770 1910l8 12q4 6 10 8l348 212l-236 90q-18 6 -25 23t-1 33q8 14 20 22l604 368q20 8 38 2q16 -6 24 -23t0 -33q-4 -2 -4 -5t-2 -5l-200 -280l240 -94q18 -6 26 -23t0 -33q-2 -14 -18 -22l-344 -208l232 -92q18 -6 25 -22t1 -34q-4 -16 -18 -20l-606 -368 q-16 -12 -36 -2q-16 4 -24 20t-2 32q4 6 8 14l200 278l-242 94q-18 6 -25 23t-1 33zM0 335q0 65 25 127t75 112q70 70 161 93q41 10 82 10q50 0 99 -15l418 418l202 -22l22 -200l-158 -40l-22 -140l-150 -32l-18 -136l-72 -72q16 -50 16 -101q0 -40 -10 -80 q-22 -91 -92 -161q-50 -50 -112 -75t-127 -25t-127 25t-112 75t-75 112t-25 127zM132 248q0 -48 34 -82t83 -34t83 34t34 82t-34 82t-83 34t-83 -34t-34 -82z" />
<glyph unicode="&#xd1;" horiz-adv-x="1030" d="M43 392q-11 78 11 158q18 68 58 124t90 105t107 95t110 97t98 109t73 132l4 14q8 28 31 41t51 5q26 -8 39 -31t7 -49l-4 -14q-22 -116 4 -224t61 -212t59 -205t-4 -203q-22 -80 -73 -142t-118 -99t-147 -47t-162 12t-144 72t-101 117t-50 145zM137 438q3 -50 19 -74 q14 -24 37 -29t45 7q16 10 24 32t0 40q-16 46 -5 95t49 85q16 12 20 34t-8 40q-16 22 -39 28t-47 -10q-28 -16 -50 -56t-36 -90q-12 -52 -9 -102zM344 804q2 -28 24 -45t50 -15q26 4 44 24t16 48q-4 28 -25 46t-49 14t-45 -24t-15 -48z" />
<glyph unicode="&#xd2;" horiz-adv-x="858" d="M404 1412v512h256v-512h-256zM8 218l48 184q50 -28 117 -49t145 -21q70 0 111 26t41 72t-39 77t-129 61q-128 44 -207 109t-79 179q0 108 70 184t198 98v152h156v-140q78 -4 134 -18t96 -34l-48 -180q-30 16 -86 36t-142 20q-76 0 -105 -28t-29 -62q0 -38 44 -68t146 -68 q142 -48 203 -118t61 -178q0 -52 -18 -100t-54 -86t-88 -65t-120 -39v-164h-158v152q-80 2 -151 22t-117 46z" />
<glyph unicode="&#xd4;" horiz-adv-x="858" d="M984 1910l8 12q4 6 10 8l348 212l-236 90q-18 6 -25 23t-1 33q8 14 20 22l604 368q20 8 38 2q16 -6 24 -23t0 -33q-4 -2 -4 -5t-2 -5l-200 -280l240 -94q18 -6 26 -23t0 -33q-2 -14 -18 -22l-344 -208l232 -92q18 -6 25 -22t1 -34q-4 -16 -18 -20l-606 -368 q-16 -12 -36 -2q-16 4 -24 20t-2 32q4 6 8 14l200 278l-242 94q-18 6 -25 23t-1 33zM8 218l48 184q50 -28 117 -49t145 -21q70 0 111 26t41 72t-39 77t-129 61q-128 44 -207 109t-79 179q0 108 70 184t198 98v152h156v-140q78 -4 134 -18t96 -34l-48 -180q-30 16 -86 36 t-142 20q-76 0 -105 -28t-29 -62q0 -38 44 -68t146 -68q142 -48 203 -118t61 -178q0 -52 -18 -100t-54 -86t-88 -65t-120 -39v-164h-158v152q-80 2 -151 22t-117 46z" />
<glyph unicode="&#xd5;" horiz-adv-x="858" d="M452 2023q8 45 40 73l568 572q34 28 79 27t75 -35l562 -556q32 -34 36 -80t-28 -74h-8v-484q0 -22 -16 -38t-38 -16h-242v454q0 32 -23 55t-53 23h-224q-32 0 -54 -23t-22 -55v-454h-566q-20 0 -37 16t-17 38v478h-8q-32 34 -24 79zM8 218l48 184q50 -28 117 -49t145 -21 q70 0 111 26t41 72t-39 77t-129 61q-128 44 -207 109t-79 179q0 108 70 184t198 98v152h156v-140q78 -4 134 -18t96 -34l-48 -180q-30 16 -86 36t-142 20q-76 0 -105 -28t-29 -62q0 -38 44 -68t146 -68q142 -48 203 -118t61 -178q0 -52 -18 -100t-54 -86t-88 -65t-120 -39 v-164h-158v152q-80 2 -151 22t-117 46z" />
<glyph unicode="&#xd9;" horiz-adv-x="1400" d="M852 1412v512h256v-512h-256zM-6 0l252 466q14 -18 28 -38l27 -36q15 -20 31 -36t37 -33t41 -31q22 -16 48 -30zM178 814v11q0 39 13 57q15 20 39 22t54 -8t61 -19t61 -13t52 10q32 20 70 57t69 77t51 79t20 65q0 24 8 47t27 37t50 15h3q30 0 72 -19q76 -32 129 -67 t83 -57q2 -2 5 -4t5 -4q2 -4 5 -6t5 -4q26 -28 64 -78t78 -120q24 -49 24 -84q0 -26 -11 -44q-13 -20 -35 -30t-48 -10q-24 -2 -61 -25t-75 -58t-71 -75t-51 -74q-12 -24 -5 -53t19 -59l24 -60q12 -30 11 -54t-20 -40t-67 -18q-9 -1 -18 -1q-51 0 -105 20q-63 23 -122 57 t-107 72t-74 62h-2q-4 2 -8 6t-9 8t-9 10l-4 2q-22 22 -56 61t-65 88t-55 106t-24 115z" />
<glyph unicode="&#xdb;" horiz-adv-x="1400" d="M1430 1910l8 12q4 6 10 8l348 212l-236 90q-18 6 -25 23t-1 33q8 14 20 22l604 368q20 8 38 2q16 -6 24 -23t0 -33q-4 -2 -4 -5t-2 -5l-200 -280l240 -94q18 -6 26 -23t0 -33q-2 -14 -18 -22l-344 -208l232 -92q18 -6 25 -22t1 -34q-4 -16 -18 -20l-606 -368 q-16 -12 -36 -2q-16 4 -24 20t-2 32q4 6 8 14l200 278l-242 94q-18 6 -25 23t-1 33zM-6 0l252 466q14 -18 28 -38l27 -36q15 -20 31 -36t37 -33t41 -31q22 -16 48 -30zM178 814v11q0 39 13 57q15 20 39 22t54 -8t61 -19t61 -13t52 10q32 20 70 57t69 77t51 79t20 65 q0 24 8 47t27 37t50 15h3q30 0 72 -19q76 -32 129 -67t83 -57q2 -2 5 -4t5 -4q2 -4 5 -6t5 -4q26 -28 64 -78t78 -120q24 -49 24 -84q0 -26 -11 -44q-13 -20 -35 -30t-48 -10q-24 -2 -61 -25t-75 -58t-71 -75t-51 -74q-12 -24 -5 -53t19 -59l24 -60q12 -30 11 -54t-20 -40 t-67 -18q-9 -1 -18 -1q-51 0 -105 20q-63 23 -122 57t-107 72t-74 62h-2q-4 2 -8 6t-9 8t-9 10l-4 2q-22 22 -56 61t-65 88t-55 106t-24 115z" />
<glyph unicode="&#xe0;" horiz-adv-x="1144" d="M534 1410v512h256v-512h-256zM-2 1052v54q0 16 20 30q20 6 38 14q16 6 31 13t21 13q4 6 11 20t13 30q8 18 12 38q4 6 9 15t19 9h180h280h180q14 0 19 -9t9 -15q4 -20 12 -38q6 -16 13 -30t13 -20t20 -13t30 -13q18 -8 38 -14q22 -14 22 -30v-54q0 -22 -22 -22h-334h-280 h-334q-20 0 -20 22zM86 970h818l-82 -930q0 -16 -12 -28t-28 -12h-574q-16 0 -28 12t-12 28zM364 1144q0 -22 20 -22h218q20 0 20 22v14q0 20 -20 20h-218q-20 0 -20 -20v-14z" />
<glyph unicode="&#xe1;" horiz-adv-x="1394" d="M16 182q0 68 48 112l18 18l500 500q-32 92 -10 187t92 165q62 62 141 88t159 12l-200 -200l66 -234l234 -66l200 200q10 -80 -14 -158t-86 -136q-70 -76 -167 -98t-185 10l-500 -500l-18 -18q-48 -48 -114 -48t-116 48q-48 50 -48 118zM130 202q0 -28 22 -50 q18 -22 48 -22t52 22q18 22 18 50t-18 50q-22 18 -52 18t-48 -18q-22 -22 -22 -50z" />
<glyph unicode="&#xe2;" horiz-adv-x="1144" d="M1114 1908l8 12q4 6 10 8l348 212l-236 90q-18 6 -25 23t-1 33q8 14 20 22l604 368q20 8 38 2q16 -6 24 -23t0 -33q-4 -2 -4 -5t-2 -5l-200 -280l240 -94q18 -6 26 -23t0 -33q-2 -14 -18 -22l-344 -208l232 -92q18 -6 25 -22t1 -34q-4 -16 -18 -20l-606 -368 q-16 -12 -36 -2q-16 4 -24 20t-2 32q4 6 8 14l200 278l-242 94q-18 6 -25 23t-1 33zM-2 1052v54q0 16 20 30q20 6 38 14q16 6 31 13t21 13q4 6 11 20t13 30q8 18 12 38q4 6 9 15t19 9h180h280h180q14 0 19 -9t9 -15q4 -20 12 -38q6 -16 13 -30t13 -20t20 -13t30 -13 q18 -8 38 -14q22 -14 22 -30v-54q0 -22 -22 -22h-334h-280h-334q-20 0 -20 22zM86 970h818l-82 -930q0 -16 -12 -28t-28 -12h-574q-16 0 -28 12t-12 28zM364 1144q0 -22 20 -22h218q20 0 20 22v14q0 20 -20 20h-218q-20 0 -20 -20v-14z" />
<glyph unicode="&#xe3;" horiz-adv-x="1144" d="M582 2021q8 45 40 73l568 572q34 28 79 27t75 -35l562 -556q32 -34 36 -80t-28 -74h-8v-484q0 -22 -16 -38t-38 -16h-242v454q0 32 -23 55t-53 23h-224q-32 0 -54 -23t-22 -55v-454h-566q-20 0 -37 16t-17 38v478h-8q-32 34 -24 79zM-2 1052v54q0 16 20 30q20 6 38 14 q16 6 31 13t21 13q4 6 11 20t13 30q8 18 12 38q4 6 9 15t19 9h180h280h180q14 0 19 -9t9 -15q4 -20 12 -38q6 -16 13 -30t13 -20t20 -13t30 -13q18 -8 38 -14q22 -14 22 -30v-54q0 -22 -22 -22h-334h-280h-334q-20 0 -20 22zM86 970h818l-82 -930q0 -16 -12 -28t-28 -12 h-574q-16 0 -28 12t-12 28zM364 1144q0 -22 20 -22h218q20 0 20 22v14q0 20 -20 20h-218q-20 0 -20 -20v-14z" />
<glyph unicode="&#xe8;" horiz-adv-x="1430" d="M572 1402v512h256v-512h-256zM4 850q-1 8 -1 17q0 79 53 129q58 56 148 62q10 1 20 1q77 0 136 -42q66 -47 76 -137q2 -46 -16 -78t-46 -64l142 -66l512 348q44 25 89 25l31 -3q60 -12 124 -50l-612 -388l658 -302q-58 -46 -116 -65q-26 -8 -52 -8q-33 0 -68 13l-556 276 l-130 -84q34 -26 53 -53t23 -73q1 -11 1 -21q0 -77 -53 -126q-60 -55 -148 -61q-13 -1 -26 -1q-75 0 -132 40q-66 47 -72 137q-1 8 -1 17q0 79 53 128q58 55 146 61l150 104l-170 86q-86 0 -149 46t-67 132zM86 856q4 -56 45 -81q35 -22 82 -22q7 0 15 1q54 4 90 35 q32 28 32 74v11q-4 56 -44 80q-34 21 -79 21q-7 0 -15 -1q-56 -4 -93 -33q-33 -26 -33 -74v-11zM126 282q4 -54 44 -80q35 -23 80 -23q7 0 14 1q56 4 93 35q33 28 33 76v11q-4 54 -45 79q-35 22 -80 22q-7 0 -15 -1q-54 -4 -91 -34q-33 -27 -33 -75v-11z" />
<glyph unicode="&#xe9;" horiz-adv-x="1376" d="M0 642q0 22 10 33t20 11l168 16v-122l-168 14q-10 0 -20 12t-10 36zM198 1038q-24 22 0 46q26 22 48 0l104 -92q-6 0 -16 -7t-20 -17t-17 -20t-7 -16zM202 243q0 19 14 31l74 108q26 -56 78 -78l-108 -90q-22 -28 -44 0q-14 10 -14 29zM246 642q0 -82 30 -152t81 -121 t120 -81t149 -30t151 30t122 81t81 121t30 152q0 80 -30 149t-81 120t-122 81t-151 30t-149 -30t-120 -81t-81 -120t-30 -149zM566 214q12 -6 30 -10t37 -4t34 4t21 10l-14 -170q0 -12 -10 -29t-20 -17q-24 0 -36 17t-12 29zM566 1070l16 168q0 22 17 34t27 12q48 0 48 -46 l14 -168q-22 10 -61 10t-61 -10zM920 318q22 0 43 26l31 38l78 -108q20 -24 0 -46q0 -10 -18 -10t-30 10zM920 1008l104 92q0 12 17 12t31 -12q10 -12 10 -32t-10 -30l-92 -106q-12 22 -31 43t-29 33zM1054 580q14 22 14 61t-14 61l170 -16q46 0 46 -44q0 -14 -12 -31 t-34 -17z" />
<glyph unicode="&#xea;" horiz-adv-x="1430" d="M1150 1900l8 12q4 6 10 8l348 212l-236 90q-18 6 -25 23t-1 33q8 14 20 22l604 368q20 8 38 2q16 -6 24 -23t0 -33q-4 -2 -4 -5t-2 -5l-200 -280l240 -94q18 -6 26 -23t0 -33q-2 -14 -18 -22l-344 -208l232 -92q18 -6 25 -22t1 -34q-4 -16 -18 -20l-606 -368 q-16 -12 -36 -2q-16 4 -24 20t-2 32q4 6 8 14l200 278l-242 94q-18 6 -25 23t-1 33zM4 850q-1 8 -1 17q0 79 53 129q58 56 148 62q10 1 20 1q77 0 136 -42q66 -47 76 -137q2 -46 -16 -78t-46 -64l142 -66l512 348q44 25 89 25l31 -3q60 -12 124 -50l-612 -388l658 -302 q-58 -46 -116 -65q-26 -8 -52 -8q-33 0 -68 13l-556 276l-130 -84q34 -26 53 -53t23 -73q1 -11 1 -21q0 -77 -53 -126q-60 -55 -148 -61q-13 -1 -26 -1q-75 0 -132 40q-66 47 -72 137q-1 8 -1 17q0 79 53 128q58 55 146 61l150 104l-170 86q-86 0 -149 46t-67 132zM86 856 q4 -56 45 -81q35 -22 82 -22q7 0 15 1q54 4 90 35q32 28 32 74v11q-4 56 -44 80q-34 21 -79 21q-7 0 -15 -1q-56 -4 -93 -33q-33 -26 -33 -74v-11zM126 282q4 -54 44 -80q35 -23 80 -23q7 0 14 1q56 4 93 35q33 28 33 76v11q-4 54 -45 79q-35 22 -80 22q-7 0 -15 -1 q-54 -4 -91 -34q-33 -27 -33 -75v-11z" />
<glyph unicode="&#xec;" horiz-adv-x="1412" d="M686 1406v512h256v-512h-256zM0 640q0 134 51 252t138 205t205 137t250 50t249 -50t204 -137t137 -205t50 -252q0 -132 -50 -249t-137 -204t-204 -137t-249 -50t-250 50t-205 137t-138 204t-51 249zM530 1058q0 -48 32 -80q34 -34 78 -34t78 34q32 36 32 80q0 24 -16 50 q-16 28 -40 40q-22 16 -54 16q-42 0 -78 -32q-32 -34 -32 -74zM542 238q0 -50 28 -78q24 -30 70 -30q26 0 52 14q10 8 19 17t15 21q4 12 8 26t4 30v524q0 16 -4 30t-8 26q-6 14 -15 23t-19 15q-26 16 -52 16q-44 0 -70 -32q-28 -28 -28 -78v-524z" />
<glyph unicode="&#xed;" horiz-adv-x="1400" d="M2 634q0 134 49 251t135 203t202 135t250 49t251 -49t203 -135t135 -203t49 -251t-49 -250t-135 -202t-203 -135t-251 -49t-250 49t-202 135t-135 202t-49 250zM638 100q114 0 212 41t170 112t113 169t41 212t-41 212t-113 170t-170 113t-212 41v-1070z" />
<glyph unicode="&#xee;" horiz-adv-x="1412" d="M1266 1904l8 12q4 6 10 8l348 212l-236 90q-18 6 -25 23t-1 33q8 14 20 22l604 368q20 8 38 2q16 -6 24 -23t0 -33q-4 -2 -4 -5t-2 -5l-200 -280l240 -94q18 -6 26 -23t0 -33q-2 -14 -18 -22l-344 -208l232 -92q18 -6 25 -22t1 -34q-4 -16 -18 -20l-606 -368 q-16 -12 -36 -2q-16 4 -24 20t-2 32q4 6 8 14l200 278l-242 94q-18 6 -25 23t-1 33zM0 640q0 134 51 252t138 205t205 137t250 50t249 -50t204 -137t137 -205t50 -252q0 -132 -50 -249t-137 -204t-204 -137t-249 -50t-250 50t-205 137t-138 204t-51 249zM530 1058 q0 -48 32 -80q34 -34 78 -34t78 34q32 36 32 80q0 24 -16 50q-16 28 -40 40q-22 16 -54 16q-42 0 -78 -32q-32 -34 -32 -74zM542 238q0 -50 28 -78q24 -30 70 -30q26 0 52 14q10 8 19 17t15 21q4 12 8 26t4 30v524q0 16 -4 30t-8 26q-6 14 -15 23t-19 15q-26 16 -52 16 q-44 0 -70 -32q-28 -28 -28 -78v-524z" />
<glyph unicode="&#xf1;" d="M2 182v868q0 50 36 86t88 36h1236q52 0 87 -36t35 -86v-868q0 -52 -35 -87t-87 -35h-1236q-52 0 -88 35t-36 87zM100 452q0 -22 15 -37t37 -15h1190q24 0 39 15t15 37v568q0 22 -15 39t-39 17h-1190q-22 0 -37 -17t-15 -39v-568zM200 174q0 -18 12 -31t28 -13q18 0 30 13 t12 31t-12 30t-30 12q-16 0 -28 -12t-12 -30zM222 684v232q0 22 15 39t37 17h948q22 0 37 -17t15 -39v-232q0 -22 -15 -37t-37 -15h-948q-22 0 -37 15t-15 37zM316 800q0 -38 27 -64t65 -26q40 0 66 26t26 64q0 40 -26 67t-66 27q-38 0 -65 -27t-27 -67zM326 284 q0 -18 12 -30t30 -12t30 12t12 30q0 16 -12 28t-30 12t-30 -12t-12 -28zM614 740h268q-6 14 -8 29t-2 31q0 40 10 62h-268l8 -29q4 -15 4 -33q0 -16 -4 -31zM996 800q0 -38 27 -64t65 -26q40 0 66 26t26 64q0 40 -26 67t-66 27q-38 0 -65 -27t-27 -67zM1098 284 q0 -18 12 -30t30 -12q16 0 28 12t12 30q0 16 -12 28t-28 12q-18 0 -30 -12t-12 -28zM1226 174q0 -18 12 -31t28 -13q18 0 30 13t12 31t-12 30t-30 12q-16 0 -28 -12t-12 -30z" />
<glyph unicode="&#xf2;" horiz-adv-x="1340" d="M1140 1402v512h256v-512h-256zM-4 100l48 208l512 514l-100 100l154 154q20 20 47 29t56 9t56 -9t45 -29l156 154q26 26 59 38t69 12q74 0 126 -52t52 -126q0 -76 -50 -126v-2l-154 -156q20 -18 29 -45t9 -56t-9 -56t-29 -47l-154 -154l-104 102l-510 -514l-208 -48 q-40 0 -70 30t-30 70z" />
<glyph unicode="&#xf3;" horiz-adv-x="1418" d="M4 66v186q0 26 19 44t45 18h186q26 0 45 -18t19 -44v-186q0 -26 -19 -44t-45 -18h-186q-26 0 -45 18t-19 44zM4 544v188q0 26 19 43t45 17h186q26 0 45 -17t19 -43v-188q0 -26 -19 -43t-45 -17h-186q-26 0 -45 17t-19 43zM4 1026v186q0 26 19 44t45 18h186q26 0 45 -18 t19 -44v-186q0 -26 -19 -44t-45 -18h-186q-26 0 -45 18t-19 44zM480 66v186q0 26 19 44t45 18h188q26 0 44 -18t18 -44v-186q0 -26 -18 -44t-44 -18h-188q-26 0 -45 18t-19 44zM480 544v188q0 26 19 43t45 17h188q26 0 44 -17t18 -43v-188q0 -26 -18 -43t-44 -17h-188 q-26 0 -45 17t-19 43zM480 1026v186q0 26 19 44t45 18h188q26 0 44 -18t18 -44v-186q0 -26 -18 -44t-44 -18h-188q-26 0 -45 18t-19 44zM962 66v186q0 26 19 44t45 18h186q26 0 45 -18t19 -44v-186q0 -26 -19 -44t-45 -18h-186q-26 0 -45 18t-19 44zM962 544v188q0 26 19 43 t45 17h186q26 0 45 -17t19 -43v-188q0 -26 -19 -43t-45 -17h-186q-26 0 -45 17t-19 43zM962 1026v186q0 26 19 44t45 18h186q26 0 45 -18t19 -44v-186q0 -26 -19 -44t-45 -18h-186q-26 0 -45 18t-19 44z" />
<glyph unicode="&#xf4;" horiz-adv-x="1340" d="M1720 1900l8 12q4 6 10 8l348 212l-236 90q-18 6 -25 23t-1 33q8 14 20 22l604 368q20 8 38 2q16 -6 24 -23t0 -33q-4 -2 -4 -5t-2 -5l-200 -280l240 -94q18 -6 26 -23t0 -33q-2 -14 -18 -22l-344 -208l232 -92q18 -6 25 -22t1 -34q-4 -16 -18 -20l-606 -368 q-16 -12 -36 -2q-16 4 -24 20t-2 32q4 6 8 14l200 278l-242 94q-18 6 -25 23t-1 33zM-4 100l48 208l512 514l-100 100l154 154q20 20 47 29t56 9t56 -9t45 -29l156 154q26 26 59 38t69 12q74 0 126 -52t52 -126q0 -76 -50 -126v-2l-154 -156q20 -18 29 -45t9 -56t-9 -56 t-29 -47l-154 -154l-104 102l-510 -514l-208 -48q-40 0 -70 30t-30 70z" />
<glyph unicode="&#xf5;" horiz-adv-x="1340" d="M1188 2013q8 45 40 73l568 572q34 28 79 27t75 -35l562 -556q32 -34 36 -80t-28 -74h-8v-484q0 -22 -16 -38t-38 -16h-242v454q0 32 -23 55t-53 23h-224q-32 0 -54 -23t-22 -55v-454h-566q-20 0 -37 16t-17 38v478h-8q-32 34 -24 79zM-4 100l48 208l512 514l-100 100 l154 154q20 20 47 29t56 9t56 -9t45 -29l156 154q26 26 59 38t69 12q74 0 126 -52t52 -126q0 -76 -50 -126v-2l-154 -156q20 -18 29 -45t9 -56t-9 -56t-29 -47l-154 -154l-104 102l-510 -514l-208 -48q-40 0 -70 30t-30 70z" />
<glyph unicode="&#xf6;" horiz-adv-x="1412" d="M8 74v128q0 32 21 54t53 22h906h112h114q32 0 53 -22t21 -54v-128q0 -32 -21 -53t-53 -21h-114h-112h-906q-32 0 -53 21t-21 53zM8 566v128q0 32 21 54t53 22h906h112h114q32 0 53 -22t21 -54v-128q0 -32 -21 -53t-53 -21h-114h-112h-906q-32 0 -53 21t-21 53zM8 1078 v128q0 32 21 54t53 22h906h112h114q32 0 53 -22t21 -54v-128q0 -32 -21 -53t-53 -21h-114h-112h-906q-32 0 -53 21t-21 53z" />
<glyph unicode="&#xf9;" d="M214 1402v512h256v-512h-256zM0 1138q0 28 21 47t45 19q26 0 44 -14h4l200 -172l1152 -94q28 0 49 -19t21 -43l-108 -562q0 -26 -20 -46t-48 -20h-984q-28 0 -47 20t-19 46l-82 614l-204 176q-24 18 -24 48zM294 90q0 36 28 63t64 27q34 0 62 -27t28 -63t-28 -63t-62 -27 q-36 0 -64 27t-28 63zM1246 96q0 34 28 59t62 25q36 -4 61 -29t25 -65q0 -36 -27 -61t-63 -25t-63 28q-24 24 -24 58q0 5 1 10z" />
<glyph unicode="&#xfa;" horiz-adv-x="1370" d="M4 641q0 33 22 57l554 552q26 24 58 24t58 -24l552 -552q24 -24 24 -57t-24 -57l-552 -552q-26 -26 -58 -26t-58 26l-554 552q-22 24 -22 57zM66 645q0 -11 12 -21l58 -60q10 -10 23 -10t23 10l58 60q20 20 0 42l-58 62q-10 10 -23 10t-23 -10l-58 -62q-12 -10 -12 -21z M208 476l260 -260q10 -10 22 -10t22 10l226 226q10 10 10 23t-10 23l-258 258q-10 10 -23 10t-23 -10l-226 -226q-20 -20 0 -44zM240 786l60 -58q10 -10 21 -10t21 10l62 58q22 22 0 46l-62 56q-22 20 -42 0l-60 -56q-22 -24 0 -46zM386 965q0 -11 12 -21l58 -62 q20 -20 44 0l58 62q20 20 0 42l-58 60q-24 24 -44 0l-58 -60q-12 -10 -12 -21zM522 821q0 -13 10 -23l258 -258q10 -10 23 -10t23 10l224 224q8 10 8 23t-8 19l-262 262q-22 20 -42 0l-224 -224q-10 -10 -10 -23zM546 1125q0 -13 10 -21l60 -60q10 -10 21 -10t21 10l62 60 q10 8 10 21t-10 23l-62 60q-22 20 -42 0l-60 -60q-10 -10 -10 -23zM556 146l58 -60q10 -10 22 -10t22 10l58 60q20 24 0 44l-58 60q-10 10 -22 10t-22 -10l-58 -60q-20 -20 0 -44zM706 331q0 -13 10 -23l62 -58q10 -10 21 -10t21 10l60 58q10 10 10 23t-10 23l-60 58 q-22 20 -42 0l-62 -58q-10 -10 -10 -23zM864 486q0 -12 10 -20l58 -60q10 -10 23 -10t23 10l58 60q10 8 10 20t-10 22l-58 62q-10 6 -23 6t-23 -6l-58 -62q-10 -10 -10 -22zM1024 647q0 -13 12 -23l58 -58q10 -10 23 -10t23 10l56 58q10 10 10 23t-10 23l-56 58 q-10 10 -23 10t-23 -10l-58 -58q-12 -10 -12 -23z" />
<glyph unicode="&#xfb;" d="M792 1900l8 12q4 6 10 8l348 212l-236 90q-18 6 -25 23t-1 33q8 14 20 22l604 368q20 8 38 2q16 -6 24 -23t0 -33q-4 -2 -4 -5t-2 -5l-200 -280l240 -94q18 -6 26 -23t0 -33q-2 -14 -18 -22l-344 -208l232 -92q18 -6 25 -22t1 -34q-4 -16 -18 -20l-606 -368 q-16 -12 -36 -2q-16 4 -24 20t-2 32q4 6 8 14l200 278l-242 94q-18 6 -25 23t-1 33zM0 1138q0 28 21 47t45 19q26 0 44 -14h4l200 -172l1152 -94q28 0 49 -19t21 -43l-108 -562q0 -26 -20 -46t-48 -20h-984q-28 0 -47 20t-19 46l-82 614l-204 176q-24 18 -24 48zM294 90 q0 36 28 63t64 27q34 0 62 -27t28 -63t-28 -63t-62 -27q-36 0 -64 27t-28 63zM1246 96q0 34 28 59t62 25q36 -4 61 -29t25 -65q0 -36 -27 -61t-63 -25t-63 28q-24 24 -24 58q0 5 1 10z" />
<glyph unicode="&#x152;" horiz-adv-x="2360" d="M854 48l58 310q0 30 22 56l678 676l324 -326l-676 -676q-6 -6 -22 -14t-22 -12l-322 -58q-5 -1 -9 -1q-14 0 -23 10t-9 25q0 4 1 10zM1688 1168l102 106q22 18 53 18t53 -18l220 -220q22 -22 22 -53t-22 -53l-106 -106zM8 218l48 184q50 -28 117 -49t145 -21q70 0 111 26 t41 72t-39 77t-129 61q-128 44 -207 109t-79 179q0 108 70 184t198 98v152h156v-140q78 -4 134 -18t96 -34l-48 -180q-30 16 -86 36t-142 20q-76 0 -105 -28t-29 -62q0 -38 44 -68t146 -68q142 -48 203 -118t61 -178q0 -52 -18 -100t-54 -86t-88 -65t-120 -39v-164h-158v152 q-80 2 -151 22t-117 46z" />
<glyph unicode="&#x153;" horiz-adv-x="2770" d="M1344 850q-1 8 -1 17q0 79 53 129q58 56 148 62q10 1 20 1q77 0 136 -42q66 -47 76 -137q2 -46 -16 -78t-46 -64l142 -66l512 348q44 25 89 25l31 -3q60 -12 124 -50l-612 -388l658 -302q-58 -46 -116 -65q-26 -8 -52 -8q-33 0 -68 13l-556 276l-130 -84q34 -26 53 -53 t23 -73q1 -11 1 -21q0 -77 -53 -126q-60 -55 -148 -61q-13 -1 -26 -1q-75 0 -132 40q-66 47 -72 137q-1 8 -1 17q0 79 53 128q58 55 146 61l150 104l-170 86q-86 0 -149 46t-67 132zM1426 856q4 -56 45 -81q35 -22 82 -22q7 0 15 1q54 4 90 35q32 28 32 74v11q-4 56 -44 80 q-34 21 -79 21q-7 0 -15 -1q-56 -4 -93 -33q-33 -26 -33 -74v-11zM1466 282q4 -54 44 -80q35 -23 80 -23q7 0 14 1q56 4 93 35q33 28 33 76v11q-4 54 -45 79q-35 22 -80 22q-7 0 -15 -1q-54 -4 -91 -34q-33 -27 -33 -75v-11zM-4 100l48 208l512 514l-100 100l154 154 q20 20 47 29t56 9t56 -9t45 -29l156 154q26 26 59 38t69 12q74 0 126 -52t52 -126q0 -76 -50 -126v-2l-154 -156q20 -18 29 -45t9 -56t-9 -56t-29 -47l-154 -154l-104 102l-510 -514l-208 -48q-40 0 -70 30t-30 70z" />
<glyph unicode="&#x2c6;" horiz-adv-x="1016" d="M10 500l8 12q4 6 10 8l348 212l-236 90q-18 6 -25 23t-1 33q8 14 20 22l604 368q20 8 38 2q16 -6 24 -23t0 -33q-4 -2 -4 -5t-2 -5l-200 -280l240 -94q18 -6 26 -23t0 -33q-2 -14 -18 -22l-344 -208l232 -92q18 -6 25 -22t1 -34q-4 -16 -18 -20l-606 -368q-16 -12 -36 -2 q-16 4 -24 20t-2 32q4 6 8 14l200 278l-242 94q-18 6 -25 23t-1 33z" />
<glyph unicode="&#x2dc;" horiz-adv-x="512" d="M90 733q8 45 40 73l568 572q34 28 79 27t75 -35l562 -556q32 -34 36 -80t-28 -74h-8v-484q0 -22 -16 -38t-38 -16h-242v454q0 32 -23 55t-53 23h-224q-32 0 -54 -23t-22 -55v-454h-566q-20 0 -37 16t-17 38v478h-8q-32 34 -24 79z" />
<glyph unicode="&#x2013;" horiz-adv-x="1024" d="M0 -6v1294h954v-1294h-954z" />
<glyph unicode="&#x2014;" horiz-adv-x="2048" d="M0 -6v1294h1978v-1294h-1978z" />
<glyph unicode="&#x2018;" horiz-adv-x="512" d="M0 768v512h256v-512h-256z" />
<glyph unicode="&#x2019;" horiz-adv-x="512" d="M0 768v512h256v-512h-256z" />
<glyph unicode="&#x201c;" horiz-adv-x="1024" d="M0 768v512h256v-512h-256zM512 768v512h256v-512h-256z" />
<glyph unicode="&#x201d;" horiz-adv-x="1024" d="M0 768v512h256v-512h-256zM512 768v512h256v-512h-256z" />
<glyph unicode="&#x2026;" horiz-adv-x="3216" d="M2144 110v1074q0 44 31 75t77 31h642q46 0 77 -31t31 -75v-1074q0 -44 -31 -75t-77 -31h-642q-46 0 -77 31t-31 75zM2278 322q0 -26 18 -43t42 -17h470q24 0 42 17t18 43v692q0 24 -18 42t-42 18h-470q-24 0 -42 -18t-18 -42v-692zM2460 1158q0 -10 9 -19t19 -9h170 q12 0 20 9t8 19q0 28 -28 28h-170q-10 0 -19 -8t-9 -20zM2506 144q0 -28 20 -48t48 -20t47 20t19 48t-19 47t-47 19t-48 -19t-20 -47zM1072 110v1074q0 44 31 75t77 31h642q46 0 77 -31t31 -75v-1074q0 -44 -31 -75t-77 -31h-642q-46 0 -77 31t-31 75zM1206 322 q0 -26 18 -43t42 -17h470q24 0 42 17t18 43v692q0 24 -18 42t-42 18h-470q-24 0 -42 -18t-18 -42v-692zM1388 1158q0 -10 9 -19t19 -9h170q12 0 20 9t8 19q0 28 -28 28h-170q-10 0 -19 -8t-9 -20zM1434 144q0 -28 20 -48t48 -20t47 20t19 48t-19 47t-47 19t-48 -19t-20 -47z M0 110v1074q0 44 31 75t77 31h642q46 0 77 -31t31 -75v-1074q0 -44 -31 -75t-77 -31h-642q-46 0 -77 31t-31 75zM134 322q0 -26 18 -43t42 -17h470q24 0 42 17t18 43v692q0 24 -18 42t-42 18h-470q-24 0 -42 -18t-18 -42v-692zM316 1158q0 -10 9 -19t19 -9h170q12 0 20 9 t8 19q0 28 -28 28h-170q-10 0 -19 -8t-9 -20zM362 144q0 -28 20 -48t48 -20t47 20t19 48t-19 47t-47 19t-48 -19t-20 -47z" />
<glyph unicode="&#x2039;" horiz-adv-x="1198" d="M242 916q0 78 29 146t80 119t118 80t145 29t145 -29t118 -80t80 -119t29 -146q0 -50 -18 -138t-47 -190t-68 -207t-81 -190t-85 -139t-79 -54q-44 0 -89 54t-85 139t-75 190t-61 207t-41 189t-15 139zM472 970q0 -58 42 -100t100 -42t100 42t42 100t-42 100t-100 42 t-100 -42t-42 -100z" />
<glyph unicode="&#x203a;" horiz-adv-x="1204" d="M8 75q0 33 22 57l1028 1024q24 22 58 22t58 -22q22 -24 22 -58t-22 -58l-1028 -1024q-24 -22 -57 -22t-59 22q-22 26 -22 59zM392 70q0 34 24 58l650 652q26 24 59 24t57 -24q22 -22 22 -56t-22 -58l-652 -654q-22 -22 -56 -22t-58 22q-24 24 -24 58zM804 89q0 33 22 57 l228 228q24 24 58 24t58 -24q22 -22 22 -56t-22 -56l-230 -232q-24 -22 -58 -22t-56 22q-22 26 -22 59z" />
<glyph unicode="&#x2122;" horiz-adv-x="2842" d="M1354 792l432 114l242 378l244 -378l432 -114l-286 -348l26 -444l-416 162l-418 -162l26 444zM10 521q0 39 26 67l640 636q16 18 37 24t43 4q6 2 20 2l400 -42h6q34 0 56 -20q19 -18 19 -45q0 -7 -1 -15l14 -368q-2 -8 -7 -21t-11 -26t-13 -25t-13 -18l-640 -638 q-28 -28 -65 -28t-65 28l-418 418q-28 28 -28 67zM802 933q0 -55 40 -93q38 -40 92 -40t92 40q40 38 40 93t-40 95q-38 38 -92 38t-92 -38q-40 -40 -40 -95z" />
<glyph unicode="&#xe000;" horiz-adv-x="1280" d="M0 1280h1280v-1280h-1280v1280z" />
<glyph unicode="&#xfb01;" horiz-adv-x="2670" d="M1258 640q0 134 51 252t138 205t205 137t250 50t249 -50t204 -137t137 -205t50 -252q0 -132 -50 -249t-137 -204t-204 -137t-249 -50t-250 50t-205 137t-138 204t-51 249zM1788 1058q0 -48 32 -80q34 -34 78 -34t78 34q32 36 32 80q0 24 -16 50q-16 28 -40 40 q-22 16 -54 16q-42 0 -78 -32q-32 -34 -32 -74zM1800 238q0 -50 28 -78q24 -30 70 -30q26 0 52 14q10 8 19 17t15 21q4 12 8 26t4 30v524q0 16 -4 30t-8 26q-6 14 -15 23t-19 15q-26 16 -52 16q-44 0 -70 -32q-28 -28 -28 -78v-524zM2 110v1070q0 46 31 77t77 31h856 q46 0 77 -31t31 -77v-1070q0 -46 -31 -77t-77 -31h-856q-46 0 -77 31t-31 77zM218 592l322 -320l322 320h-218v374h-212v-374h-214z" />
<glyph unicode="&#xfb02;" horiz-adv-x="2370" d="M1262 638v614q0 10 9 19t23 9h240l208 -208v-38h-212q-22 0 -38 -17t-16 -41v-372h-182q-14 0 -23 10t-9 24zM1570 16v884q0 16 13 29t33 13h344l300 -296v-630q0 -18 -14 -30t-32 -12h-598q-20 0 -33 12t-13 30zM2 110v1070q0 46 31 77t77 31h856q46 0 77 -31t31 -77 v-1070q0 -46 -31 -77t-77 -31h-856q-46 0 -77 31t-31 77zM218 592l322 -320l322 320h-218v374h-212v-374h-214z" />
<glyph unicode="&#xfb03;" horiz-adv-x="3928" d="M2516 640q0 134 51 252t138 205t205 137t250 50t249 -50t204 -137t137 -205t50 -252q0 -132 -50 -249t-137 -204t-204 -137t-249 -50t-250 50t-205 137t-138 204t-51 249zM3046 1058q0 -48 32 -80q34 -34 78 -34t78 34q32 36 32 80q0 24 -16 50q-16 28 -40 40 q-22 16 -54 16q-42 0 -78 -32q-32 -34 -32 -74zM3058 238q0 -50 28 -78q24 -30 70 -30q26 0 52 14q10 8 19 17t15 21q4 12 8 26t4 30v524q0 16 -4 30t-8 26q-6 14 -15 23t-19 15q-26 16 -52 16q-44 0 -70 -32q-28 -28 -28 -78v-524zM1260 110v1070q0 46 31 77t77 31h856 q46 0 77 -31t31 -77v-1070q0 -46 -31 -77t-77 -31h-856q-46 0 -77 31t-31 77zM1476 592l322 -320l322 320h-218v374h-212v-374h-214zM2 110v1070q0 46 31 77t77 31h856q46 0 77 -31t31 -77v-1070q0 -46 -31 -77t-77 -31h-856q-46 0 -77 31t-31 77zM218 592l322 -320l322 320 h-218v374h-212v-374h-214z" />
<glyph unicode="&#xfb04;" horiz-adv-x="3628" d="M2520 638v614q0 10 9 19t23 9h240l208 -208v-38h-212q-22 0 -38 -17t-16 -41v-372h-182q-14 0 -23 10t-9 24zM2828 16v884q0 16 13 29t33 13h344l300 -296v-630q0 -18 -14 -30t-32 -12h-598q-20 0 -33 12t-13 30zM1260 110v1070q0 46 31 77t77 31h856q46 0 77 -31t31 -77 v-1070q0 -46 -31 -77t-77 -31h-856q-46 0 -77 31t-31 77zM1476 592l322 -320l322 320h-218v374h-212v-374h-214zM2 110v1070q0 46 31 77t77 31h856q46 0 77 -31t31 -77v-1070q0 -46 -31 -77t-77 -31h-856q-46 0 -77 31t-31 77zM218 592l322 -320l322 320h-218v374h-212v-374 h-214z" />
</font>
</defs>
</svg>
